<svg xmlns="http://www.w3.org/2000/svg" version="1.1" viewBox="0 0 3000 2250" width="3000" height="2250">
<defs/><!--ITEM: Illustration component 1--><g transform="translate(279.59999999999997 207.6) rotate(0.0 1201.8 950.4000000000001)  scale(2.5024622746211844 2.501720854386106)"><svg width="960.494" height="759.797" viewBox="0.0 0.0 960.494 759.797"><path d="m784 361.585a15.706 15.706 0 1 1 30.094-9.007c44.808 149.712 132.578 107.039 110.6 30.836-21.035-72.927-101.5-87.875-158.339-44.714a15.707 15.707 0 0 1 -19-25.018c74.076-56.255 180.2-33.7 207.52 61.026 6.882 23.861 6.049 47.877-2.346 67.622-26.066 61.311-122.859 71.85-168.529-80.745z" fill="#b2c2c4"/><path d="m892.358 485.4q-1.744 0-3.5-.1c-20.007-1.113-39.761-11.47-57.127-29.95-20.166-21.461-36.548-52.912-48.689-93.479a16.707 16.707 0 0 1 32.01-9.581c11.122 37.159 26.041 65.725 43.145 82.608 14.226 14.042 29.463 19.6 42.906 15.65 18.731-5.5 33.027-30.806 22.628-66.858-9.031-31.308-29.77-53.779-58.4-63.274-31.926-10.588-68.7-3.456-98.376 19.079a16.707 16.707 0 0 1 -20.208-26.611c38.465-29.211 86.81-38.232 129.324-24.133 39.253 13.019 67.58 43.447 79.762 85.679 6.946 24.081 6.1 48.334-2.386 68.291-11.147 26.237-34.874 42.679-61.089 42.679zm-93.291-143.03a14.715 14.715 0 0 0 -14.109 18.93c12.051 40.267 28.279 71.449 48.231 92.682 17.007 18.1 36.3 28.238 55.78 29.323 1.131.063 2.262.094 3.385.094 25.412 0 48.418-15.968 59.255-41.458 8.3-19.535 9.124-43.313 2.3-66.954-11.993-41.579-39.861-71.53-78.47-84.335-41.887-13.891-89.545-4.984-127.484 23.828a14.707 14.707 0 0 0 17.794 23.42c30.2-22.934 67.662-30.181 100.214-19.384 29.273 9.709 50.471 32.657 59.69 64.618 10.756 37.293-4.33 63.555-23.986 69.331-14.173 4.165-30.109-1.57-44.875-16.146-17.342-17.118-32.438-45.978-43.656-83.458a14.73 14.73 0 0 0 -14.069-10.5z" fill="#670a39"/><path d="m232.421 310.816c-12.638 21.675-27.6 39.141-43.737 52.7-.021.021-.053.041-.074.062-52.973 44.492-118.48 46.9-155.306 18.105-42.345-33.13-39.351-101.583-12.189-156.437 27.707-56.041 80.627-97.915 136.124-73.507a15.707 15.707 0 0 1 -12.649 28.754c-74.69-32.848-149.15 131.694-91.936 176.448 25.728 20.1 75.235 16.848 116.554-18.272a153.012 153.012 0 0 0 11.245-10.576 173.545 173.545 0 0 0 24.838-33.1 15.7 15.7 0 1 1 27.13 15.822z" fill="#9c819c"/><path d="m174.6 351.224c-16.094 25.256-69.706 53.876-122.354 28.876-49.015-23.274-52.973-95.294-31.131-154.854q2.043-4.131 4.272-8.157c23.236-42.062 60.813-74.156 102.355-72.389a81.255 81.255 0 0 1 29.5 7.036 15.707 15.707 0 0 1 -12.649 28.754c-74.693-32.845-149.153 131.697-91.939 176.451 25.214 19.706 73.266 16.973 114.072-16.209a6.594 6.594 0 0 1 8.094-.294c2.67 2.032 2.995 5.749-.22 10.786z" fill="#b9acc0"/><path d="m117.8 167.613c-43.142 11.687-59.5 24.887-83.774 62.754-13.878 21.654-19.2 3.142-3.055-22.751 22.92-36.763 57.26-63.645 94.874-62.971a12.542 12.542 0 0 1 5.056 1.119c9.921 4.609 2.199 17.703-13.101 21.849z" fill="#d5d6e4"/><g fill="#670a39"><path d="m232.421 310.816c-12.638 21.675-27.6 39.141-43.737 52.7 10.858-9.822 5.905-35.728-8.231-35.424a173.545 173.545 0 0 0 24.838-33.1 15.7 15.7 0 1 1 27.13 15.822z"/><path d="m188.684 364.517a1 1 0 0 1 -.671-1.742c6.217-5.624 6.791-16.887 3.754-24.527-2.354-5.922-6.46-9.247-11.292-9.155a.985.985 0 0 1 -.938-.6 1 1 0 0 1 .2-1.1 173.039 173.039 0 0 0 24.694-32.909 16.7 16.7 0 1 1 28.858 16.829c-12.155 20.847-26.945 38.666-43.958 52.963a1 1 0 0 1 -.647.241zm-6.046-37.27c4.729.775 8.66 4.408 10.987 10.262s2.783 13.763.223 20.143a201.639 201.639 0 0 0 37.709-47.34 14.7 14.7 0 1 0 -25.4-14.814 176 176 0 0 1 -23.519 31.749z"/><path d="m92.581 401.84c-22.983 0-43.694-6.7-59.894-19.37-47.585-37.221-37.913-116.4-4.654-171.993 14.925-24.951 33.7-44.106 54.281-55.393 24.754-13.572 50.8-15.045 75.326-4.258a16.706 16.706 0 0 1 -13.453 30.585c-34.925-15.361-68.089 13.8-87.48 46.219-13.944 23.308-22.407 50.524-23.216 74.67-.573 17.061 2.394 40.253 19.782 53.856 14.019 10.965 34.923 14.79 57.352 10.492 37.007-7.1 71.2-33.4 93.8-72.158a16.707 16.707 0 0 1 28.865 16.83c-27.469 47.1-69.884 79.223-116.371 88.14a129.661 129.661 0 0 1 -24.338 2.38zm31.957-256.14c-13.825 0-27.738 3.721-41.263 11.136-20.275 11.118-38.783 30.021-53.526 54.664-32.82 54.868-42.512 132.88 4.17 169.4 15.845 12.394 36.13 18.945 58.662 18.945a127.691 127.691 0 0 0 23.962-2.344c45.919-8.809 87.842-40.585 115.019-87.184a14.706 14.706 0 0 0 -25.408-14.817c-22.9 39.258-57.578 65.907-95.152 73.114-23 4.406-44.487.44-58.961-10.881-18.05-14.12-21.137-37.974-20.549-55.5.822-24.471 9.386-52.037 23.5-75.627 19.83-33.148 53.888-62.909 90-47.023a14.707 14.707 0 1 0 11.843-26.924 79.78 79.78 0 0 0 -32.297-6.959z"/><path d="m62.282 155.644a1 1 0 0 1 -.616-1.789c22.91-17.88 47.862-24.9 72.159-20.313a1 1 0 0 1 -.371 1.966c-23.715-4.483-48.113 2.408-70.558 19.924a1 1 0 0 1 -.614.212z"/></g><path d="m858.632 99.813a33.6 33.6 0 0 1 -.963 7.948c-32.178 132.249-52.1 277.6-56.188 415.837a31.006 31.006 0 0 1 -24.408 29.382c-8.71 1.922-12-.253-45.1-4.723l53.027-482.401.283-2.566 44.817 3.55a33.362 33.362 0 0 1 28.532 32.973z" fill="#9c819c"/><path d="m858.632 99.813a33.6 33.6 0 0 1 -.963 7.948c-32.178 132.249-52.1 277.6-56.188 415.837a31.006 31.006 0 0 1 -24.408 29.382 30.963 30.963 0 0 0 18.127-27.288c4.083-138.239 24.01-283.587 56.187-415.837a33.31 33.31 0 0 0 -27.57-40.921l-38.817-3.078.283-2.566 44.817 3.55a33.362 33.362 0 0 1 28.532 32.973z" fill="#b9acc0"/><path d="m770.517 554.68a32.018 32.018 0 0 1 -5.7-.512c-.331-.051-32.4-4.839-32.98-4.922a1 1 0 0 1 -.853-1.1l53.3-484.968a1 1 0 0 1 1.073-.887l44.821 3.546a34.359 34.359 0 0 1 28.465 42.163l-.972-.236.972.236a2041.816 2041.816 0 0 0 -56.165 415.63 31.991 31.991 0 0 1 -31.961 31.055zm-37.439-7.272c5.443.81 32.008 4.776 32.1 4.792a29.986 29.986 0 0 0 35.305-28.634 2043.817 2043.817 0 0 1 56.217-416.044 32.362 32.362 0 0 0 -26.742-39.7l-43.789-3.463z" fill="#670a39"/><path d="m523.4 712.506c-29.638 13.842-72.26 19.524-97.562 19.524-21 0-37-5.443-46.446-14.044-22.074-20.12-8.506-57.5 60.026-83.232q10.061-3.769 19.071-6.48a202.749 202.749 0 0 1 22.011-5.384c13.164-2.371 24.445-2.693 34.332-1.3h.012a69.39 69.39 0 0 1 17.7 4.884c34.847 14.88 40.446 62.851-9.144 86.032z" fill="#b9acc0"/><path d="m508.456 629.425c-17.321-.572-38.584 2.359-65.554 12.937-59.55 23.36-80.715 53.692-63.6 74.893-22.073-20.12-8.5-57.5 60.027-83.232q10.059-3.769 19.071-6.48a202.692 202.692 0 0 1 22.014-5.384c13.164-2.371 24.444-2.692 34.332-1.3h.011a6.67 6.67 0 0 1 -6.301 8.566z" fill="#9c819c"/><path d="m487.022 632.385c-7.436-3.509-17.739-5.365-31.938-3.814 7.887-2.37 18.517-5.173 25.33-6.412 1.895 3.133 4.726 7.153 6.608 10.226z" fill="#670a39"/><path d="m487.022 633.385a1 1 0 0 1 -.427-.1c-8.171-3.856-18.736-5.109-31.4-3.725a1 1 0 0 1 -.4-1.951c7.6-2.284 18.41-5.161 25.438-6.439a1 1 0 0 1 1.035.466c.975 1.612 2.222 3.5 3.429 5.316 1.113 1.68 2.263 3.416 3.176 4.906a1 1 0 0 1 -.853 1.522zm-22.288-6.365a56.012 56.012 0 0 1 19.719 3.2c-.465-.712-.947-1.439-1.421-2.155-1.075-1.622-2.182-3.292-3.112-4.794-4.439.842-10.233 2.264-15.744 3.754z" fill="#670a39"/><path d="m522.009 660.737a249.164 249.164 0 0 1 -45-38.669 243.58 243.58 0 0 1 -45.12-71.057c-.01-.01-.01-.021-.021-.042-15.046-36.1-22.408-77.025-21.444-121.485a17.875 17.875 0 0 1 17.434-17.476 6.775 6.775 0 0 1 .806-.01 17.865 17.865 0 0 1 17.487 18.251c-1 46.638 8.314 88.71 27.026 124.312a208.134 208.134 0 0 0 64.3 73.423c2.689 1.916-7.133 32.879-15.468 32.753z" fill="#b9acc0"/><path d="m545.241 674.507c8.07-20.809-2.52-40.6-24.093-41.448-16.4-.644-27.018 7.343-32.145 13.658-33.639 4.389-108.378 37.277-107.756 56.213.416 12.651 22.222 16.33 43.907 15.18 65.079-3.452 110.952-20.049 120.087-43.603z" fill="#d5d6e4"/><path d="m472.305 616.773a19.5 19.5 0 0 0 16.222 6.873c10.949-.891 13.62-10.5 3.677-22.757a272.891 272.891 0 0 1 -31.711-48.6c-17.868-34.7-31.222-74.118-32.64-140.279a17.883 17.883 0 0 0 -17.439 17.475c-1.597 74.281 20.013 138.657 61.891 187.288z" fill="#d5d6e4"/><path d="m473.172 554.561c-.074.01 1.35 2.893 1.276 2.9-8.754-17.7-45.406-16.611-41.573-4.109-15.047-36.1-23.42-79.411-22.456-123.871a17.875 17.875 0 0 1 17.434-17.476 6.775 6.775 0 0 1 .806-.01 17.865 17.865 0 0 1 17.487 18.251c-1.005 46.641 8.314 88.713 27.026 124.315z" fill="#670a39"/><path d="m474.448 558.464a1 1 0 0 1 -.9-.557c-5.8-11.714-25.534-15.244-35.346-11.343-2.589 1.03-5.45 2.993-4.375 6.5a1 1 0 0 1 -1.88.678c-15.462-37.1-23.465-81.239-22.532-124.278a18.787 18.787 0 0 1 18.414-18.454 7.4 7.4 0 0 1 .865-.01 18.866 18.866 0 0 1 18.448 19.273c-1 46.291 8.056 87.952 26.911 123.825a.963.963 0 0 1 .091.25c.09.219.375.829.569 1.245.839 1.8.872 1.869.613 2.347a1 1 0 0 1 -.74.516.969.969 0 0 1 -.138.008zm-26.932-15.427c7.607 0 16.321 2.308 22.347 7.237-17.366-35.085-25.678-75.44-24.717-120.047a16.864 16.864 0 0 0 -16.508-17.227 6.149 6.149 0 0 0 -.708.008 16.808 16.808 0 0 0 -16.512 16.5c-.893 41.242 6.467 83.491 20.766 119.5a9.431 9.431 0 0 1 5.283-4.3 27.794 27.794 0 0 1 10.049-1.671z" fill="#670a39"/><path d="m425.743 732.293c-31.051 0-53.322-12.161-56.738-30.984-3.446-18.986 13.126-46.878 69.972-68.217a250.223 250.223 0 0 1 36.682-11.006c-1.494-1.612-2.166-2.364-2.467-2.785-43.263-49.19-65.316-114.834-63.774-189.833a18.872 18.872 0 1 1 37.736.805 274.87 274.87 0 0 0 9.288 78.954.856.856 0 0 1 .051.142c11.984 43.383 33.639 78.443 64.365 104.2 3.12 2.616 6.511 5.121 10.1 7.772 13.865 10.24 29.581 21.847 29.581 42.06v.048c.547 19.794-13.206 38.19-36.807 49.222-28.832 13.483-71.007 19.622-97.989 19.622zm49.065-114.156c.224.285 1.416 1.624 3.528 3.893a1 1 0 0 1 -.537 1.662 247.163 247.163 0 0 0 -38.12 11.273c-55.693 20.906-72.008 47.795-68.706 65.987 3.235 17.824 24.734 29.341 54.77 29.341 26.768 0 68.585-6.08 97.143-19.429 23.227-10.858 36.221-28.145 35.652-47.428a.932.932 0 0 1 0-.106c-.039-19.155-14.644-29.943-28.769-40.375-3.616-2.67-7.032-5.193-10.2-7.849-31.009-26-52.866-61.347-64.968-105.062a.9.9 0 0 1 -.051-.143c-6.847-24.8-10.01-51.608-9.4-79.671a16.873 16.873 0 0 0 -33.738-.72c-1.526 74.49 20.355 139.663 63.288 188.474a1.027 1.027 0 0 1 .108.153z" fill="#670a39"/><path d="m487.022 633.385a.991.991 0 0 1 -.688-.274c-.134-.127-13.388-13.329-13.388-14.466a1 1 0 0 1 1.862-.507c.64.813 8.464 9.314 12.9 13.522a1 1 0 0 1 -.688 1.725z" fill="#670a39"/><path d="m580.758 681.133c0 54.154 115.288 93.7 165.782 71.25a.1.1 0 0 1 .049-.024 39.028 39.028 0 0 0 12.708-8.671c29.013-30.192-36.9-102.982-135.853-100.875-8.624.551-18.894 3.406-26.6 8.342-4.533 2.9-8.659 7.268-8.659 7.611-4.199 4.858-7.427 12.744-7.427 22.367z" fill="#b9acc0"/><path d="m622.676 642.862c4.831 1.7 12.789 4.552 15.643 7.454 72.456 3.324 134.108 56.439 126.1 85.834 13.485-31.41-46.627-95.22-140.976-93.337.001 0-.267.012-.767.049z" fill="#9c819c"/><path d="m626.908 642.789c3.573 1.987 6.484 4.487 11.411 7.109a110 110 0 0 1 26.872-3.573 195.109 195.109 0 0 0 -38.283-3.536z" fill="#670a39"/><path d="m638.319 650.9a1.01 1.01 0 0 1 -.47-.117 75.208 75.208 0 0 1 -6.975-4.3c-1.506-1.014-2.929-1.972-4.452-2.82a1 1 0 0 1 .481-1.873 195.969 195.969 0 0 1 38.48 3.555 1 1 0 0 1 -.178 1.981 108.133 108.133 0 0 0 -26.614 3.535 1.009 1.009 0 0 1 -.272.039zm-7.855-7.1c.5.333 1.012.674 1.527 1.021a74.24 74.24 0 0 0 6.447 4 101.737 101.737 0 0 1 17.649-3.033 195.843 195.843 0 0 0 -25.623-1.988z" fill="#670a39"/><path d="m710.855 759.7c-30.943 0-68.369-10.312-95.963-28.241-22.657-14.721-35.134-32.592-35.134-50.322 0-8.991 2.8-17.382 7.671-23.021l.015.013c1.131-1.8 5.724-5.806 8.862-7.813 7.311-4.683 17.432-7.86 27.072-8.5 31.77-.635 91.265 5.841 133.212 56.327 16.383 19.713 12.086 37.229 3.428 46.238a.86.86 0 0 1 -.083.077l-.131.135a41.75 41.75 0 0 1 -12.794 8.674l-.064.031c-9.771 4.344-22.289 6.402-36.091 6.402zm-121.739-100.568a1.026 1.026 0 0 1 -.174.288c-4.566 5.281-7.184 13.2-7.184 21.713 0 17.03 12.154 34.3 34.224 48.645 39.4 25.6 98.985 35.533 130.131 21.7.023-.011.045-.022.069-.032a39.733 39.733 0 0 0 12.184-8.244c.105-.108.181-.187.251-.249 8.445-8.827 11.934-24.884-3.564-43.533-41.413-49.842-100.223-56.227-131.588-55.607-9.273.614-19.04 3.674-26.08 8.184a40.716 40.716 0 0 0 -8.269 7.135z" fill="#670a39"/><path d="m638.719 650.3-34.743 15.958q-7.837-7.837-15.109-15.78a448.936 448.936 0 0 1 -57.539-77.266c-5.78-9.874-11.193-20.073-16.293-30.691-6.366-13.235-12.251-27.141-17.727-41.926-6.4-17.214-12.241-35.643-17.717-55.633a17.873 17.873 0 0 1 34.481-9.423 593.077 593.077 0 0 0 21.455 65.061c4.2 10.439 8.785 20.753 13.874 30.973h.011c19.559 39.287 46.491 77.235 86.847 116.344 1.172 1.145 1.267 1.25 2.46 2.383z" fill="#b9acc0"/><path d="m479.6 444.964c5.467 19.989 11.316 38.417 17.713 55.631a457.592 457.592 0 0 0 34.022 72.617 445.749 445.749 0 0 0 53.985 73.357 44.393 44.393 0 0 0 11.449 9.186c18.887 10.457 17.162-9.569-1.2-34.31-44.707-60.229-81.552-106.734-92.154-197.8a17.872 17.872 0 0 0 -23.815 21.319z" fill="#d5d6e4"/><path d="m601.391 664.645a.993.993 0 0 1 -.713-.3c-28.631-29.133-51.6-58.776-70.207-90.622a441.326 441.326 0 0 1 -27.293-55.362c-2.048-4.974-4.023-9.985-5.872-14.895-6.521-17.323-12.4-35.548-17.98-55.716l-.3-1.1c-.13-.472-.262-.945-.39-1.422a18.87 18.87 0 0 1 36.406-9.945c.654 2.392 1.32 4.784 1.987 7.152.042.122.085.29.126.457a571.686 571.686 0 0 0 19.233 57.18c3.168 7.88 6.527 15.6 9.983 22.95 21.823 46.365 51.261 86.451 92.644 126.153a1 1 0 1 1 -1.385 1.443c-41.565-39.877-71.138-80.151-93.069-126.745-3.472-7.383-6.846-15.14-10.029-23.055a573.814 573.814 0 0 1 -19.309-57.411c-.038-.148-.066-.267-.106-.385-.681-2.418-1.349-4.815-2-7.212a16.869 16.869 0 0 0 -32.545 8.9c.127.476.257.943.387 1.409l.3 1.106c5.56 20.1 11.423 38.273 17.923 55.54 1.841 4.89 3.809 9.883 5.85 14.838a439.135 439.135 0 0 0 27.17 55.113c18.526 31.7 41.393 61.217 69.906 90.231a1 1 0 0 1 -.713 1.7z" fill="#670a39"/><path d="m549.4 531.577c-7.853-14.408-44.387-11.4-34.366 10.942-6.366-13.235-12.251-27.141-17.727-41.926-6.4-17.214-12.241-35.643-17.717-55.633a17.873 17.873 0 0 1 34.481-9.423 593.077 593.077 0 0 0 21.456 65.063c4.199 10.443 8.785 20.757 13.873 30.977z" fill="#670a39"/><path d="m515.036 543.52a1 1 0 0 1 -.9-.567c-6.357-13.215-12.333-27.35-17.764-42.013-6.347-17.078-12.152-35.3-17.744-55.715a18.873 18.873 0 0 1 36.41-9.952 585.192 585.192 0 0 0 21.419 64.958c4.369 10.863 8.9 20.971 13.841 30.9a1 1 0 0 1 -1.773.925c-4.53-8.312-19.336-10.365-27.83-6.153-3.671 1.82-9.168 6.345-4.745 16.207a1 1 0 0 1 -.912 1.41zm-18.175-120.135a17.047 17.047 0 0 0 -4.474.6 16.859 16.859 0 0 0 -11.832 20.715c5.577 20.354 11.363 38.524 17.69 55.548 4.371 11.8 9.1 23.26 14.09 34.167.3-4.421 2.834-8 7.469-10.3 7.38-3.659 18.7-3.055 25.744 1.846-3.839-8.04-7.445-16.269-10.949-24.98a595.412 595.412 0 0 1 -21.492-65.181 16.879 16.879 0 0 0 -16.246-12.416z" fill="#670a39"/><path d="m596.562 705.243c22.325 24.7 71.511 45.269 120.875 45.042 31.818-.146 30.956-13.283 16.77-22.5-20.44-13.28-62.077-9.268-117.138-51.865a37.642 37.642 0 0 0 -5.273-3.489c-23.016-12.285-31.012 15.354-15.234 32.812z" fill="#d5d6e4"/><path d="m193.765 451.717h-.028a1 1 0 0 1 -.972-1.028c3.428-120.88 19-248.585 45.036-369.312 3.3-15.336 6.843-30.846 10.528-46.1a1 1 0 1 1 1.944.469c-3.681 15.237-7.219 30.73-10.517 46.051-26.009 120.608-41.567 248.188-44.992 368.946a1 1 0 0 1 -.999.974z" fill="#670a39"/><path d="m488.231 495.458h-.024a1 1 0 0 1 -.976-1.023c2.992-126.292 19.288-259.752 47.125-385.953 3.516-15.969 7.29-32.1 11.219-47.943a1 1 0 1 1 1.941.481c-3.924 15.827-7.695 31.94-11.207 47.892-27.81 126.078-44.09 259.406-47.079 385.57a1 1 0 0 1 -.999.976z" fill="#670a39"/><path d="m782.7 539.2h-.02a1 1 0 0 1 -.98-1.019c2.555-131.7 19.574-270.919 49.214-402.595 3.73-16.6 7.737-33.351 11.909-49.786a1 1 0 0 1 1.938.492c-4.167 16.417-8.169 33.15-11.9 49.733-29.61 131.545-46.611 270.622-49.161 402.193a1 1 0 0 1 -1 .982z" fill="#670a39"/><path d="m843.784 86.044c-36.901 145.97-58.184 303.834-61.084 452.156a15.44 15.44 0 0 1 -17.7 14.989c-585.971-87.543-556.09-82.73-559.646-84.271a19.249 19.249 0 0 1 -11.592-18.2c3.665-131.988 22.45-278.237 55.539-415.209a19.329 19.329 0 0 1 20.345-14.7c598.973 49.191 562.713 45.048 567.992 48.722a15.465 15.465 0 0 1 6.146 16.513z" fill="#bfd3ce"/><path d="m494.816 39.3c-106.879 113.685-215.916 259.872-300.593 416.152a19.087 19.087 0 0 1 -.461-4.732q.315-11.325.8-22.765c79.105-145.045 179.03-281.179 278.505-390.444l8.262.68z" fill="#d3e4e6"/><path d="m581.233 46.4c-109.611 119.915-219.965 272.646-302.624 434.131l-4.806-.723c-67.236-10.277-64.253-9.066-68.449-10.89 81.485-159.17 189.882-309.818 297.922-428.926z" fill="#d3e4e6"/><path d="m843.784 86.044a2011.065 2011.065 0 0 0 -39.758 200.144c-58.135 77.077-113.339 161.327-160.951 248.782l-152.144-22.723c83.873-166.741 197.808-324.76 310.7-447.753 30.524 2.517 31.48 1.884 36.01 5.037a15.465 15.465 0 0 1 6.143 16.513z" fill="#d3e4e6"/><path d="m843.784 86.044q-6.236 24.566-11.895 49.758c-.366 1.634-.733 3.278-1.089 4.911l-593.07-54.208c.346-1.644.691-3.288 1.047-4.922q5-23.182 10.524-46.072a19.329 19.329 0 0 1 20.345-14.7l560.454 46.019a15.425 15.425 0 0 1 13.685 19.214z" fill="#94b8c2"/><path d="m837.638 69.531a15.394 15.394 0 0 1 .911 10.23q-6.235 24.566-11.895 49.759c-29.154 129.485-46.617 269.68-49.193 402.392a15.441 15.441 0 0 1 -17.7 15l-225.47-33.691-168.709-25.2-154.406-23.065a19.268 19.268 0 0 1 -12.176-18.425c3.38-119.031 18.678-246.981 45.013-369.131q4.995-23.182 10.523-46.073a19.3 19.3 0 0 1 4.272-8.209 19.291 19.291 0 0 0 -9.507 12.4q-5.529 22.882-10.524 46.065c-26.335 122.156-41.633 250.1-45.015 369.137a19.121 19.121 0 0 0 2.207 9.452c-.013-.01-.027-.019-.039-.029.1.19.207.373.312.558.034.061.067.122.1.182q.4.693.857 1.35c.023.033.048.065.071.1q.444.628.935 1.219c.031.036.059.073.09.109q.519.615 1.087 1.185l.117.114q.544.535 1.128 1.029l.091.079q.612.507 1.267.964c.065.046.132.089.2.134.413.281.835.549 1.271.8.033.019.065.04.1.059.456.258.925.494 1.405.715.095.044.191.086.287.129.459.2.925.392 1.4.559.03.011.058.023.088.033.5.172 1 .318 1.52.45.119.031.239.06.359.088.522.123 1.049.233 1.588.314l160.614 23.987 168.71 25.2c243.473 36.34 232.208 37.479 239.756 28.087a15.363 15.363 0 0 0 3.417-9.387c2.576-132.711 20.042-272.908 49.193-402.393q5.655-25.177 11.895-49.758a15.465 15.465 0 0 0 -6.15-16.518z" fill="#94b8c2"/><path d="m549.2 342.494c-5.874 59.564-9.146 119.08-9.674 177.01l-168.71-25.2 39.518-171.453 137.049 17.367a2.091 2.091 0 0 1 1.817 2.276z" fill="#94b8c2"/><path d="m592.322 113.907c-12.471 62.837-22.031 126.857-28.576 190.081a2.086 2.086 0 0 1 -2.335 1.854l-167.369-20.481-74.878-9.161-13.571-1.664-16.419-2.011-20.649-2.525a2.1 2.1 0 0 1 -1.832-2.314c6.775-60.344 16.272-121.223 28.408-180.95l125.045 11.433 20.1 1.833 10.063.921 77.035 7.047z" fill="#94b8c2"/><path d="m494.816 39.3q-27.252 29-54.565 60.7a2080.268 2080.268 0 0 0 -134.658 174.534l-16.419-2.011a2092.814 2092.814 0 0 1 130.972-174.354q26.354-31.506 52.921-60.658l8.262.68z" fill="#bfd3ce"/><path d="m581.233 46.4q-26.983 29.514-53.884 61.57a2092.4 2092.4 0 0 0 -133.307 177.391l-74.878-9.161a2093.838 2093.838 0 0 1 131.15-175.275q26.37-31.632 52.962-60.931z" fill="#bfd3ce"/><path d="m843.784 86.044q-6.236 24.566-11.895 49.758l-4.628-.418-.785-.074c-.367-.031-.7-.063-1-.094l-586.699-53.633c1.579-7.325 9.749-44.2 11.089-47.968a19.31 19.31 0 0 1 8.942-10.5h.011a16.6 16.6 0 0 1 2.146-1l.011-.011c10.576-4.227 1.758-.219 569.123 44.733a15.447 15.447 0 0 1 13.685 19.207z" fill="#829a9e"/><path d="m831.889 135.8-85.936-7.853q27.738-33.03 55.675-63.455c15.575 1.365 27.587 1.839 31.8 2.985 1.258 0 5.737 2.434 8.094 5.968 5.578 7.972 1.665 11.355-9.633 62.355z" fill="#94b8c2"/><path d="m843.784 86.044q-6.236 24.566-11.895 49.758l-4.628-.418-.785-.074c-.367-.031-.7-.063-1-.094q5.323-23.561 11.183-46.6a15.443 15.443 0 0 0 -13.686-19.215l-289.634-23.775 2.961-2.926 293.8 24.13c.534.041 1.057.125 1.6.219.2.042.387.095.576.137.251.052.481.094.743.167l.021.032a15.431 15.431 0 0 1 10.744 18.659z" fill="#bfd3ce"/><path d="m536.3 42.7-2.963 2.922-262.529-21.556c-9.371-.639-16.24 5.549-18.366 14.586-3.382 14.419-6.8 28.89-9.948 43.465l-3.717-.534c1.581-7.329 9.749-44.2 11.089-47.968a19.269 19.269 0 0 1 8.272-10.094.128.128 0 0 1 -.063.011c.105-.063.629-.356.733-.419h.011c.691-.377 1.78-.859 2.146-1l.011-.011c6.6-2.639 5.937-2.052 140.438 9.529z" fill="#4a607c"/><path d="m595.849 96.573q-1.8 8.645-3.527 17.334l-297.222-27.172q5.2-25.649 11.047-50.973l248.97 21.8 40.1 37.049a2.084 2.084 0 0 1 .632 1.962z" fill="#4a607c"/><path d="m197.121 173.426c18.016 14.671 58.847 23.983 82.769 5.685 26.877-20.559 15.957-40.466-8.4-34.429-37.337 9.255-49.149-14.118-80.828-5.263-8.274 2.312-10.346 20.321 6.459 34.007z" fill="#9c819c"/><path d="m246.144 190.241a82.782 82.782 0 0 1 -9.974-.617c-15.033-1.824-30.238-7.733-39.68-15.423-11.633-9.472-14.115-20.73-12.706-27.492.888-4.26 3.358-7.345 6.608-8.253 15.692-4.386 26.485-1.043 37.911 2.5 11.818 3.661 24.038 7.446 42.946 2.76 11.336-2.81 20.8-.172 24.114 6.721 3.075 6.4.785 17.5-14.866 29.472-8.862 6.775-20.821 10.332-34.353 10.332zm-48.391-17.59c17.564 14.3 58.056 23.62 81.529 5.666 14.7-11.243 17.013-21.328 14.279-27.018-2.884-6-11.453-8.219-21.831-5.646-19.448 4.821-31.939.951-44.019-2.79-11.137-3.45-21.657-6.708-36.78-2.481-2.554.714-4.445 3.169-5.189 6.735-1.294 6.213 1.074 16.628 12.011 25.534z" fill="#670a39"/><ellipse cx="802.19" cy="99.178" fill="#bcbc6d" rx="19.019" ry="16.02" transform="matrix(.32632716 -.94525689 .94525689 .32632716 446.669 825.091)"/><path d="m800.445 118.9a14.622 14.622 0 0 1 -4.787-.8 15.745 15.745 0 0 1 -9.5-9.548 21.83 21.83 0 0 1 -.059-14.929c3.6-10.434 13.749-16.431 22.621-13.369a15.747 15.747 0 0 1 9.5 9.548 21.824 21.824 0 0 1 .058 14.929l-.945-.326.945.326c-2.964 8.588-10.362 14.169-17.833 14.169zm3.476-37.448c-6.634 0-13.249 5.063-15.928 12.824a19.823 19.823 0 0 0 .034 13.557 13.783 13.783 0 0 0 8.284 8.377c7.828 2.7 16.835-2.74 20.077-12.132a19.817 19.817 0 0 0 -.035-13.557 13.777 13.777 0 0 0 -8.283-8.376 12.68 12.68 0 0 0 -4.149-.692z" fill="#670a39"/><path d="m831.89 136.8c-.03 0-.061 0-.092 0l-239.613-21.9-353.5-32.315a1 1 0 0 1 -.886-1.206c3.323-15.424 6.865-30.933 10.529-46.1a20.239 20.239 0 0 1 21.4-15.464c173.07 14.213 293 24.042 376.11 30.853 91.095 7.462 136.821 11.209 161.162 13.241 24.946 2.082 26.485 2.211 26.956 2.687 6.1 2.006 10.9 7.984 11.221 14 .284 2.621-1.221 8.76-4.22 20.992-2.055 8.385-4.871 19.868-8.1 34.428a1 1 0 0 1 -.967.784zm-591.897-56.11 352.374 32.21 238.733 21.827c3.15-14.175 5.9-25.384 7.915-33.612 2.756-11.244 4.42-18.03 4.169-20.356a14.518 14.518 0 0 0 -9.984-12.307.722.722 0 0 1 -.074-.02 1.389 1.389 0 0 1 -.467-.242c-2.8-.437-28.38-2.534-186.988-15.532-83.107-6.811-203.039-16.64-376.108-30.852a18.246 18.246 0 0 0 -19.291 13.941c-3.572 14.785-7.029 29.899-10.279 44.943zm594.273-13.288v.066c.004-.022.006-.044.006-.068zm-1.99-.171a.946.946 0 0 0 -.008.128.931.931 0 0 1 .014-.128z" fill="#670a39"/><ellipse cx="709.853" cy="90.95" fill="#ff6d6d" rx="18.422" ry="15.517" transform="matrix(.32632716 -.94525689 .94525689 .32632716 392.241 732.266)"/><path d="m708.2 110.094a14.326 14.326 0 0 1 -4.685-.785 15.284 15.284 0 0 1 -9.217-9.267 21.17 21.17 0 0 1 -.058-14.482c3.5-10.123 13.342-15.94 21.951-12.969s12.769 13.626 9.275 23.749a21.173 21.173 0 0 1 -8.979 11.362 16.149 16.149 0 0 1 -8.287 2.392zm3.329-36.282c-6.413 0-12.808 4.9-15.4 12.4a19.169 19.169 0 0 0 .033 13.11 12.856 12.856 0 0 0 19.3 6.662 19.168 19.168 0 0 0 8.114-10.3c3.135-9.08-.47-18.593-8.037-21.2a12.23 12.23 0 0 0 -4.01-.672z" fill="#670a39"/><ellipse cx="755.765" cy="95.173" fill="#ffed8d" rx="18.422" ry="15.517" transform="matrix(.32632716 -.94525689 .94525689 .32632716 419.179 778.509)"/><path d="m754.074 114.309a14.2 14.2 0 0 1 -4.647-.777c-8.609-2.972-12.769-13.626-9.275-23.749a21.179 21.179 0 0 1 8.979-11.363 14.852 14.852 0 0 1 22.189 7.661 21.17 21.17 0 0 1 .058 14.482c-2.878 8.33-10.054 13.746-17.304 13.746zm3.349-36.278a14.175 14.175 0 0 0 -7.266 2.106 19.17 19.17 0 0 0 -8.114 10.3c-3.135 9.08.47 18.593 8.037 21.205s16.272-2.651 19.407-11.731a19.172 19.172 0 0 0 -.033-13.111 13.316 13.316 0 0 0 -8-8.094 12.293 12.293 0 0 0 -4.031-.675z" fill="#670a39"/><path d="m788.452 162.295c-13.683 65.831-24.359 134-31.621 202.2a2.089 2.089 0 0 1 -2.335 1.853l-149.522-18.532a2.1 2.1 0 0 1 -1.83-2.3c7-66.854 17.3-133.723 30.514-198.414a2.1 2.1 0 0 1 2.256-1.666l150.686 14.355a2.088 2.088 0 0 1 1.852 2.504z" fill="#d3b6b8"/><path d="m607.524 343.912c6.9-65.316 16.948-130.6 29.862-194.13l146.489 13.956c-13.384 64.78-23.8 131.433-30.982 198.192z" fill="#fff8ed"/><path d="m754.761 367.366a3.17 3.17 0 0 1 -.388-.024l-149.523-18.534a3.115 3.115 0 0 1 -2.7-3.4c7-66.793 17.266-133.581 30.53-198.51a3.089 3.089 0 0 1 3.33-2.462l150.69 14.364a3.086 3.086 0 0 1 2.732 3.7c-13.722 66.02-24.356 134.018-31.606 202.1a3.089 3.089 0 0 1 -3.064 2.763zm-119.049-220.941a1.1 1.1 0 0 0 -1.074.876c-13.251 64.866-23.512 131.59-30.5 198.319a1.1 1.1 0 0 0 .957 1.2l149.523 18.534a1.088 1.088 0 0 0 1.217-.966c7.258-68.152 17.9-136.215 31.637-202.3a1.087 1.087 0 0 0 -.964-1.305l-150.689-14.353c-.036-.003-.071-.005-.107-.005z" fill="#670a39"/><path d="m755.682 367.134a1 1 0 0 1 -.805-.405c-46.143-62.309-93.883-148.775-121.624-220.282a1 1 0 0 1 1.865-.724c27.681 71.355 75.321 157.638 121.367 219.816a1 1 0 0 1 -.8 1.6z" fill="#670a39"/><path d="m648.106 299.784a1 1 0 0 1 -.729-1.684c44.361-47.283 96.8-98.791 140.274-137.786a1 1 0 1 1 1.336 1.489c-43.434 38.958-95.828 90.422-140.152 137.665a1 1 0 0 1 -.729.316z" fill="#670a39"/><path d="m761.312 438.983c-2.386 30.263-4.074 60.4-5.025 90.226a1.043 1.043 0 0 1 -1.193 1l-151.282-21.8a1.049 1.049 0 0 1 -.9-1.071c.93-29.222 2.568-58.746 4.871-88.4a1.051 1.051 0 0 1 1.183-.96l151.441 19.885a1.044 1.044 0 0 1 .905 1.12z" fill="#94b8c2"/><path d="m767.272 554.358a16.3 16.3 0 0 1 -2.42-.18l-394.183-58.889-160.615-23.989a20.3 20.3 0 0 1 -17.291-20.609c1.615-56.689 5.929-115.34 12.822-174.326 7.688-65.878 18.527-131.483 32.215-194.992 3.323-15.424 6.865-30.933 10.529-46.1a20.379 20.379 0 0 1 10-13.04.9.9 0 0 1 .094-.045 20.258 20.258 0 0 1 11.306-2.379l560.451 46.024a16.417 16.417 0 0 1 14.574 20.457c-4.147 16.336-8.147 33.068-11.889 49.731-.2.859-.382 1.713-.567 2.567-3.128 13.952-6.17 28.3-9.051 42.7-23.625 117.816-37.3 241.24-39.551 356.928a16.454 16.454 0 0 1 -16.424 16.144zm-508.061-530.325a18.373 18.373 0 0 0 -8.938 11.713c-3.66 15.147-7.2 30.64-10.518 46.048-13.674 63.447-24.5 128.988-32.183 194.8-6.887 58.928-11.2 117.521-12.81 174.151a18.3 18.3 0 0 0 15.588 18.574l329.325 49.193 225.473 33.688a14.447 14.447 0 0 0 16.552-14.026c2.252-115.8 15.941-239.35 39.589-357.281 2.884-14.409 5.929-28.776 9.052-42.7.192-.888.379-1.75.576-2.612 3.746-16.677 7.75-33.428 11.9-49.781a14.531 14.531 0 0 0 -10.064-17.482 14.679 14.679 0 0 0 -2.735-.49l-560.454-46.022a18.266 18.266 0 0 0 -10.264 2.184c-.03.016-.059.03-.089.043z" fill="#670a39"/><path d="m952.526 442.332c-22.177 52.167-95.579 67.58-145.1-23.015 1.937-23.309 4.115-44.586 6.67-66.732 44.669 149.5 132.626 107.213 110.595 30.827-20.96-72.691-101.315-88.012-158.34-44.712a15.608 15.608 0 0 1 -11.675 3.037c-13.822-1.937-18.387-19.654-7.32-28.052 44.6-33.9 103.124-41.712 154.187-11.895 45.35 28.272 71.213 92.972 50.983 140.542z" fill="#9c819c"/><path d="m904.59 467.892c-33.713 8.669-66.837-15.351-74.554-45.5-3.445-13.476-.67-19.591 3.686-20.251 46.428 88.3 110.051 47.424 90.972-18.732-20.967-72.692-101.313-88.009-158.343-44.709a15.608 15.608 0 0 1 -11.675 3.037c-13.817-1.933-18.387-19.651-7.32-28.052 48.027-36.532 109.588-39.742 154.187-11.895 65.762 45.664 64.911 150.195 3.047 166.102z" fill="#b9acc0"/><path d="m936.024 372.543c-4.387.073-6.586-4.692-19.518-22.283-37.445-50.96-89.967-50.96-128.815-34.973-23.259 9.578-26.456-11.721-14.368-17.575 42.438-20.55 90.424-18.98 127.175 3.43a13.536 13.536 0 0 1 1.307.908c34.116 26.85 45.334 70.305 34.219 70.493z" fill="#d5d6e4"/><path d="m892.727 485.455c-32.03 0-63.278-23.738-86.176-65.659a1.008 1.008 0 0 1 -.119-.562c1.837-22.015 4.082-44.478 6.674-66.765a1 1 0 0 1 1.951-.171c11.129 37.158 26.052 65.722 43.155 82.6 14.225 14.041 29.46 19.6 42.9 15.648 18.726-5.5 33.019-30.808 22.622-66.86-9.027-31.3-29.817-53.785-58.539-63.315-31.823-10.56-68.548-3.411-98.239 19.123a16.7 16.7 0 0 1 -20.2-26.609c38.409-29.217 86.643-38.28 129.024-24.244a119.3 119.3 0 0 1 48.942 30.716c14.425 14.976 24.893 33.5 31.115 55.073 6.95 24.074 6.1 48.327-2.386 68.291-10.837 25.479-32.351 41.422-57.551 42.656-1.061.052-2.119.078-3.173.078zm-84.277-66.355c23.258 42.433 55.091 65.865 87.347 64.279 24.42-1.2 45.284-16.687 55.809-41.439 8.31-19.542 9.129-43.32 2.3-66.954-12-41.607-39.974-71.6-78.764-84.444-41.755-13.83-89.3-4.88-127.185 23.938a14.7 14.7 0 0 0 17.783 23.424c30.218-22.934 67.63-30.2 100.079-19.43 29.366 9.745 50.615 32.708 59.831 64.66 10.755 37.294-4.328 63.557-23.98 69.333-14.168 4.164-30.1-1.569-44.868-16.144-16.628-16.412-31.2-43.621-42.262-78.873-2.34 20.603-4.39 41.317-6.09 61.65z" fill="#670a39"/><path d="m904.327 289.278a1 1 0 0 1 -.494-.132 141.074 141.074 0 0 0 -54.216-17.189 1 1 0 1 1 .218-1.988 143.066 143.066 0 0 1 54.989 17.44 1 1 0 0 1 -.5 1.869z" fill="#670a39"/><path d="m822.329 442.594a189.343 189.343 0 0 1 -14.9-23.277q2.78-33.33 6.67-66.732a311.864 311.864 0 0 0 12.44 34.512c-16.231.932-15.194 39.003-4.21 55.497z" fill="#670a39"/><path d="m822.33 443.594a1 1 0 0 1 -.8-.4 191.1 191.1 0 0 1 -14.98-23.4 1.008 1.008 0 0 1 -.119-.562c1.837-22.015 4.082-44.478 6.674-66.765a1 1 0 0 1 1.951-.171 312.328 312.328 0 0 0 12.4 34.4 1 1 0 0 1 -.86 1.4c-3.5.2-6.285 2.33-8.281 6.33-5.7 11.421-3.255 35.45 4.846 47.614a1 1 0 0 1 -.831 1.554zm-13.88-24.494c2.59 4.725 5.3 9.25 8.107 13.533-4.321-13.068-4.7-29.753-.031-39.1 2.047-4.1 4.99-6.588 8.567-7.264-3.775-8.838-7.314-18.507-10.548-28.816-2.345 20.601-4.395 41.314-6.095 61.647z" fill="#670a39"/><path d="m794.811 422.9c-3.214 9.309-15.047 11.633-24.67 10.6-21.413-2.294-30.942-17.707-37.465-29.246-16.262-28.816-31.539-31.947-80.8-10.544-22.523 9.779-36.052 19.319-55.632 16.921-12.2-1.5-23.037-9.853-21.77-20.241 2.283-18.575 22.775-13.455 62.314-33.287-17.194-1.2-32.073-4.649-47.916-11.948-31.518-14.534-20.115-43.58 3.843-36.648 31.266 9.068 50.638 7.591 62.271 8.2-15-4.67-28.879-11.978-43.235-23.874-24.2-19.832-7.026-45.35 20.084-28.669 45.015 27.7 77.852 14.5 106.93 23.9 6.67 2.157 13.11 5.978 16.66 12.219a29.988 29.988 0 0 1 3.3 9.267c.188.984.335 1.99.429 3 .032.3.063.607.084.9.042.566.073 1.121.084 1.676a37.192 37.192 0 0 1 -.136 4.586 34.765 34.765 0 0 1 -.932 5.319c11.633 3.98 16.973 15.843 12.586 27.121-4.942 12.669-11.759 25.591 1.623 37.852 6.827 6.262 21.885 14.168 23.183 25.937a15.866 15.866 0 0 1 -.835 6.959z" fill="#b9acc0"/><path d="m794.811 422.9c-3.214 9.309-15.047 11.633-24.67 10.6-21.413-2.294-30.942-17.707-37.465-29.246-16.262-28.816-31.539-31.947-80.8-10.544-22.523 9.779-36.052 19.319-55.632 16.921-12.2-1.5-23.037-9.853-21.77-20.241 3.142 18.22 26.607 16.105 40.094 11.592 23.811-7.969 42.376-28.387 67.507-32.241a53.873 53.873 0 0 1 42.525 12.059c13.811 11.769 21.12 30.136 37.067 39.225 7.864 4.481 17.937 5.989 25.948 1.79 2.785-1.455 5.57-4.7 8.031-6.89a15.866 15.866 0 0 1 -.835 6.975z" fill="#9c819c"/><path d="m678.939 350.4c5.937-7.717 6.931-15.3 5.591-22.345 6.555 6.136 18.555 10.691 29.654 11.016-14.136 1.619-22.659 4.129-35.245 11.329z" fill="#9c819c"/><path d="m659.986 357.663c-15.906 20.387-54.01 43.047-74.271 36.565-3.686-1.18-5.82-3.289-6.722-5.892a8.685 8.685 0 0 1 4.007-10.18c9.564-5.642 27.594-7.628 54.364-21.058 7.418.513 14.884.586 22.622.565z" fill="#d5d6e4"/><path d="m704.2 283.989-19.67 44.062c-39.256 23.508-109.422 8.084-112.333-13.309v-.01c3.476-5.833 11.225-9.089 21.1-6.23 31.266 9.067 50.642 7.6 62.271 8.2-14.806-4.614-28.718-11.851-43.235-23.874-24.2-19.832-7.026-45.35 20.084-28.669 20.595 12.657 41.694 18.929 71.783 19.83z" fill="#d5d6e4"/><path d="m721.482 338.616c-12.937 1.219-29.245-3.479-37.17-10.859a28.867 28.867 0 0 0 -13.8-7.228c-5.244-1.083-10.206-2.34-14.972-3.829a116.476 116.476 0 0 1 -19.33-7.9c-.89-.461-1.78-.932-2.659-1.414a132.367 132.367 0 0 1 -17.2-11.371c-.671-.513-1.33-1.026-2-1.561s-1.341-1.068-2.011-1.623c-24.2-19.832-7.026-45.35 20.084-28.669 21.884 13.455 44.345 19.7 77.548 19.936a110.661 110.661 0 0 1 19.822 1.864l.01.011c37.406 13.461 20.725 49.9-8.322 52.643z" fill="#d5d6e4"/><path d="m658.175 358.677c-24.777 0-45.034-1.5-69.141-12.619-17.585-8.1-22.148-20.6-18.87-29.394 2.578-6.914 11-12.717 23.41-9.123a1 1 0 1 1 -.557 1.921c-11.182-3.24-18.713 1.824-20.979 7.9-2.956 7.927 1.412 19.313 17.833 26.88 25.663 11.839 47 12.609 74.338 12.411h.008a1 1 0 0 1 .007 2q-3.07.023-6.049.024z" fill="#670a39"/><path d="m671.746 321.783a1.009 1.009 0 0 1 -.2-.019c-23.923-4.764-41.263-12.924-59.846-28.164a1 1 0 0 1 1.268-1.546c18.31 15.01 35.4 23.048 58.974 27.744a1 1 0 0 1 -.194 1.981z" fill="#670a39"/><path d="m715.541 340.089q-.692 0-1.39-.023c-11.266-.329-23.446-4.865-30.3-11.285a1 1 0 1 1 1.366-1.46c6.427 6.016 18.352 10.435 29 10.746a36.182 36.182 0 0 0 7.106-.437 1 1 0 0 1 .327 1.973 37.427 37.427 0 0 1 -6.109.486z" fill="#670a39"/><path d="m774.32 434.718a40.129 40.129 0 0 1 -4.286-.229c-21.03-2.252-30.76-16.536-38.229-29.748-16.272-28.836-31.881-30.822-79.525-10.119-4.785 2.077-9.108 4.118-13.289 6.092-15.179 7.166-27.169 12.825-42.864 10.9-12.226-1.5-24.038-9.9-22.64-21.354 1.463-11.926 9.895-14.566 25.2-19.358a237.239 237.239 0 0 0 34.4-13.1 130.833 130.833 0 0 1 -44.629-11.744c-17.584-8.106-22.148-20.6-18.871-29.392 2.577-6.913 11-12.718 23.41-9.126a193.5 193.5 0 0 0 55.1 7.965l.3.005a126.071 126.071 0 0 1 -37.279-21.91c-13.146-10.774-14.012-22.874-9.251-29.555 4.808-6.749 16.1-9.593 30.5-.737 28.576 17.583 52.265 18.559 73.165 19.42 11.8.486 22.944.946 33.548 4.371 14.313 4.624 21.468 14.6 21.267 29.663a1 1 0 0 1 -2-.027c.191-14.278-6.313-23.349-19.882-27.733-10.344-3.341-21.356-3.8-33.015-4.275-21.145-.872-45.111-1.86-74.131-19.715-13.294-8.18-23.552-5.8-27.82.194-4.238 5.948-3.263 16.887 8.894 26.85 13.636 11.293 27.266 18.821 42.9 23.693a1 1 0 0 1 -.35 1.953c-2.037-.106-4.281-.146-6.878-.194a195.26 195.26 0 0 1 -55.62-8.043c-11.182-3.238-18.714 1.828-20.979 7.9-2.954 7.925 1.414 19.308 17.834 26.877 15.08 6.949 29.75 10.606 47.567 11.858a1 1 0 0 1 .378 1.892c-15.591 7.821-27.991 11.7-37.955 14.823-14.986 4.691-22.508 7.046-23.814 17.692-1.229 10.078 9.891 17.775 20.9 19.126 15.124 1.853 26.3-3.425 41.768-10.727 4.194-1.981 8.532-4.029 13.345-6.119 26.129-11.353 41.572-15.3 53.31-13.632 11.484 1.634 19.815 8.762 28.754 24.6 7.224 12.778 16.613 26.592 36.7 28.743 8.981.969 20.553-1.052 23.618-9.928 4.077-11.837-6.993-20.19-15.887-26.9-2.312-1.745-4.5-3.393-6.189-4.946-12.8-11.726-7.875-23.992-3.117-35.854.416-1.035.831-2.069 1.233-3.1a19.217 19.217 0 0 0 -11.973-25.808 1 1 0 0 1 .647-1.893 21.214 21.214 0 0 1 13.184 28.431c-.4 1.038-.822 2.078-1.239 3.12-4.713 11.748-9.164 22.843 2.612 33.635 1.622 1.488 3.769 3.108 6.041 4.823 8.915 6.727 21.123 15.941 16.574 29.151-2.957 8.561-12.621 11.489-21.437 11.489z" fill="#670a39"/><path d="m751.589 421.233c-6.805 86.84-2.594 90.747-7.3 90.07l-149.2-21.5a2.1 2.1 0 0 1 -1.8-2.142c.923-28.553 2.522-57.393 4.755-86.36a2.1 2.1 0 0 1 2.366-1.92l149.369 19.619a2.089 2.089 0 0 1 1.81 2.233z" fill="#517fb6"/><path d="m596.39 485.927c.895-26.838 2.413-54.435 4.516-82.1l145.2 19.065c-2.182 28.2-3.758 56.411-4.689 83.933z" fill="#82b3fb"/><path d="m744.933 512.361a5.3 5.3 0 0 1 -.782-.069l-149.2-21.5a3.1 3.1 0 0 1 -2.657-3.164c.913-28.216 2.514-57.287 4.758-86.4a3.1 3.1 0 0 1 3.494-2.835l149.36 19.612a3.088 3.088 0 0 1 2.677 3.306c-3.256 41.55-3.989 64.122-4.384 76.249-.346 10.659-.428 13.192-1.755 14.3a2.294 2.294 0 0 1 -1.511.501zm-144.79-111.995a1.1 1.1 0 0 0 -1.093 1.015c-2.243 29.088-3.842 58.129-4.754 86.315a1.1 1.1 0 0 0 .943 1.121l149.2 21.5c.607.087.712.03.727.018.641-.538.783-4.906 1.041-12.836.394-12.143 1.129-34.745 4.389-76.34l1 .078-1-.078a1.091 1.091 0 0 0 -.944-1.167l-149.364-19.616a1.178 1.178 0 0 0 -.145-.01z" fill="#670a39"/><path d="m746.005 511.76a1 1 0 0 1 -.554-.167c-23.185-15.464-49.634-34.351-76.487-54.62-.941-.711-1.882-1.422-2.833-2.133-24.604-18.64-48.131-37.377-68.031-54.183a1 1 0 0 1 1.29-1.528c19.88 16.783 43.376 35.5 67.947 54.113q1.424 1.064 2.837 2.135c26.822 20.245 53.238 39.109 76.391 54.551a1 1 0 0 1 -.556 1.832z" fill="#670a39"/><path d="m593.82 490.107a1 1 0 0 1 -.458-1.89c21.717-11.165 46.944-23.3 72.954-35.089l1.767-.8q1.7-.769 3.412-1.537c27.165-12.226 53.979-23.558 77.539-32.772a1 1 0 1 1 .728 1.863c-23.529 9.2-50.311 20.521-77.45 32.734q-1.715.765-3.4 1.534l-1.768.8c-25.98 11.777-51.176 23.9-72.864 35.046a1 1 0 0 1 -.46.111z" fill="#670a39"/><path d="m578.594 61.123a2074.876 2074.876 0 0 0 -31.978 205.767c-.084.733-.157 1.455-.231 2.188a2.086 2.086 0 0 1 -2.335 1.853l-292.9-35.852a2.085 2.085 0 0 1 -1.822-2.315 2056.1 2056.1 0 0 1 39.051-230.132 2.087 2.087 0 0 1 2.23-1.623l246.248 21.57 3.246 3z" fill="#ffb9df"/><path d="m544.318 271.948a3.263 3.263 0 0 1 -.393-.024l-292.892-35.853a3.083 3.083 0 0 1 -2.694-3.425 2051.4 2051.4 0 0 1 39.061-230.239 3.1 3.1 0 0 1 3.3-2.395l246.244 21.571a1 1 0 0 1 .591.261l41.738 38.544a1 1 0 0 1 .3.938 2071.284 2071.284 0 0 0 -31.963 205.668c-.084.737-.157 1.455-.229 2.183a3.085 3.085 0 0 1 -1.16 2.108 3.053 3.053 0 0 1 -1.903.663zm-253.895-269.948a1.093 1.093 0 0 0 -1.068.851 2049.14 2049.14 0 0 0 -39.029 230.025 1.084 1.084 0 0 0 .947 1.21l292.9 35.853a1.088 1.088 0 0 0 1.219-.969c.073-.729.147-1.456.231-2.194a2073.6 2073.6 0 0 1 31.877-205.303l-41.071-37.928-245.907-21.54c-.033-.005-.067-.005-.099-.005z" fill="#670a39"/><path d="m546.616 266.89c-.084.733-.157 1.455-.231 2.188a2.086 2.086 0 0 1 -2.335 1.853l-292.9-35.852a2.085 2.085 0 0 1 -1.822-2.315 2056.1 2056.1 0 0 1 39.051-230.132 2.087 2.087 0 0 1 2.23-1.623l246.248 21.57 3.246 3-4.44 3.11-241.745-21.178a2050.667 2050.667 0 0 0 -37.989 223.8z" fill="#ff7be3"/><path d="m532.915 50.548-1.75 8.036a1.011 1.011 0 0 0 .994 1.27l46.426 1.261z" fill="#670a39"/><path d="m578.585 62.115h-.028l-46.425-1.261a2.009 2.009 0 0 1 -1.944-2.482l1.75-8.036a1 1 0 0 1 1.2-.762l45.672 10.567a1 1 0 0 1 -.225 1.974zm-44.908-10.365-1.535 7.05 36.458 1.031z" fill="#670a39"/><path d="m505.943 146.663c-7.453 17.3-22.027 32.661-40.631 33.041-29.024.225-44.584-34.652-40.986-66.751 3.8-34.033 26.575-59.424 50.832-56.712 31.186 3.487 47.859 50.748 30.785 90.422z" fill="#ff7be3"/><path d="m390.178 134.211c-7.115 15.979-18.742 27.354-31.625 30.36-28.272 6.557-49.017-26.917-44.77-64.747 3.754-33.518 25.39-58.615 48.342-56.055 28.999 3.251 46.049 49.95 28.053 90.442z" fill="#ff7be3"/><path d="m482.621 224.607c-1.072 0-2.133-.033-3.19-.1a1 1 0 0 1 .129-2c21.414 1.383 46.508-11.957 54.813-29.135a1 1 0 1 1 1.8.871c-8.211 16.986-32.173 30.364-53.552 30.364z" fill="#670a39"/><path d="m545.712 196.429c-8.762 0-15.806-3.477-19.394-9.6a1 1 0 0 1 1.725-1.011c3.3 5.635 9.979 8.771 18.3 8.6a1 1 0 0 1 .04 2c-.224.008-.448.011-.671.011z" fill="#670a39"/><path d="m501.758 140.378c-7.016 16.293-20.345 30.859-37.413 32.827-1.058.126-2.136.2-3.225.22-29.016.22-44.576-34.659-40.984-66.753 3.811-34.031 26.575-59.423 50.837-56.711.031 0 .073.01.1.01 31.127 3.581 47.727 50.774 30.685 90.407z" fill="#e7dcdc"/><path d="m501.758 140.378c-7.016 16.293-20.345 30.859-37.413 32.827-26.366-2.921-40.293-35.989-36.879-66.533 3.424-30.617 22.209-54.251 43.612-56.7 31.122 3.58 47.722 50.773 30.68 90.406z" fill="#fff8ea"/><path d="m499.963 144.226c-7.79 15.535-21.531 28.842-38.84 29.2-7.033-22.861 19.337-42.534 38.84-29.2z" fill="#670a39"/><path d="m461.123 174.422a1 1 0 0 1 -.956-.706 26.533 26.533 0 0 1 10.017-29.406c9.263-6.822 21.173-7.179 30.344-.91a1 1 0 0 1 .329 1.274c-9.18 18.306-24.027 29.427-39.713 29.747zm25.159-33.557a25.541 25.541 0 0 0 -14.912 5.055 24.573 24.573 0 0 0 -9.5 26.477c14.427-.638 28.088-10.966 36.8-27.829a22.8 22.8 0 0 0 -12.388-3.703z" fill="#670a39"/><path d="m384.943 128.975c-7.11 15.979-18.743 27.351-31.623 30.356a29.559 29.559 0 0 1 -3.361.586c-26.534 3.288-45.486-29.015-41.413-65.329 3.759-33.518 25.392-58.617 48.345-56.051.146.021.293.031.439.052 28.723 3.665 45.518 50.104 27.613 90.386z" fill="#e7dcdc"/><path d="m460.863 174.426c-10.173 0-19.386-4.268-26.675-12.356-11.487-12.747-17.393-34.536-15.046-55.509 3.867-34.527 27.167-60.361 51.942-57.594l.083.009c11.719 1.347 22.065 8.831 29.156 21.073 11.425 19.724 12.349 47.485 2.354 70.724-8.232 19.119-22.519 31.614-38.217 33.424-1.08.129-2.2.2-3.32.227zm6.574-123.662c-22.381 0-42.745 24.213-46.307 56.019-2.286 20.431 3.422 41.607 14.544 53.948 6.96 7.724 15.767 11.765 25.438 11.694 1.044-.02 2.1-.092 3.115-.213 14.981-1.728 28.667-13.776 36.612-32.229 9.755-22.678 8.873-49.736-2.246-68.932-6.767-11.681-16.579-18.815-27.63-20.086l-.08-.009a30.958 30.958 0 0 0 -3.446-.192z" fill="#670a39"/><path d="m384.943 128.975c-7.11 15.979-18.743 27.351-31.623 30.356a29.559 29.559 0 0 1 -3.361.586c-22.586-2.869-37.769-32.46-34.083-65.329 3.382-30.135 21.2-53.465 41.454-56 28.723 3.666 45.518 50.105 27.613 90.387z" fill="#fff8ea"/><path d="m346.234 161.15c-8.217 0-15.909-3.339-22.433-9.789-12.565-12.42-18.791-34.217-16.249-56.884 3.815-34.015 26-59.552 49.45-56.934l.47.056c10.765 1.374 20.374 8.654 27.043 20.5 11.212 19.914 11.739 47.9 1.341 71.286-7.27 16.338-19.348 27.9-32.309 30.923a30.8 30.8 0 0 1 -3.475.606 31.174 31.174 0 0 1 -3.838.236zm7.407-121.8c-21.153 0-40.581 23.959-44.1 55.347-2.476 22.072 3.527 43.239 15.667 55.239 7.08 7 15.6 10.105 24.629 8.986a29.055 29.055 0 0 0 3.259-.568c12.352-2.883 23.917-14.018 30.934-29.788 10.149-22.833 9.656-50.11-1.257-69.492-6.351-11.279-15.431-18.2-25.568-19.5l-.455-.054a27.764 27.764 0 0 0 -3.109-.167z" fill="#670a39"/><path d="m384.942 128.976c-6.349 14.261-17.928 27.966-33.335 30.713-7.424-20.483 13.578-39.754 33.335-30.713z" fill="#670a39"/><path d="m351.607 160.689a1 1 0 0 1 -.94-.659 25.59 25.59 0 0 1 34.691-31.964 1 1 0 0 1 .5 1.316c-7.636 17.151-20.374 28.849-34.073 31.292a.958.958 0 0 1 -.178.015zm23.02-33a23.688 23.688 0 0 0 -22.356 30.85c12.485-2.6 24.1-13.364 31.341-29.055a23.646 23.646 0 0 0 -8.985-1.791z" fill="#670a39"/><path d="m578.585 61.115-49.826-5.5a1.015 1.015 0 0 1 -.893-1.327l9-31.708z" fill="#ff7be3"/><path d="m578.585 62.115a1.014 1.014 0 0 1 -.11-.006l-49.826-5.5a2.013 2.013 0 0 1 -1.745-2.593l9-31.708a1 1 0 0 1 1.641-.462l41.718 38.534a1 1 0 0 1 -.678 1.735zm-41.2-37.7-8.556 30.142 46.841 5.226z" fill="#670a39"/><path d="m544.308 271.947a3.212 3.212 0 0 1 -.379-.023l-292.9-35.853a3.083 3.083 0 0 1 -2.694-3.425c2.207-19.647 4.739-39.624 7.525-59.369a2.06 2.06 0 0 1 .037-.268c6.643-47 14.908-93.848 24.557-139.193 2.246-10.546 4.581-21.116 6.946-31.409a3.1 3.1 0 0 1 3.3-2.395l246.244 21.571a1 1 0 0 1 .591.261l41.738 38.544a1 1 0 0 1 .3.938c-10.791 51.889-19.725 105.4-26.552 159.041-2.083 16.3-3.981 32.725-5.641 48.814a3.083 3.083 0 0 1 -3.072 2.766zm-253.886-269.947a1.094 1.094 0 0 0 -1.067.851c-2.369 10.289-4.7 20.845-6.94 31.38-9.64 45.3-17.9 92.1-24.543 139.114a1.555 1.555 0 0 1 -.021.167c-2.786 19.741-5.318 39.714-7.525 59.364a1.084 1.084 0 0 0 .947 1.21l292.9 35.853a1.09 1.09 0 0 0 .732-.168 1.115 1.115 0 0 0 .488-.805c1.66-16.095 3.56-32.534 5.645-48.852 6.809-53.5 15.712-106.874 26.463-158.641l-41.072-37.928-245.907-21.54c-.034-.005-.067-.005-.1-.005z" fill="#670a39"/><path d="m299.761 253.644c-6.335 2.345-14.723-1.163-21.707-7.717a45.578 45.578 0 0 1 -7.968-9.885 21.594 21.594 0 0 1 -1.508 4.743c-3.665 8.168-12.22 14.283-20.974 14.7a18.559 18.559 0 0 1 -9.612-2.084 19.274 19.274 0 0 1 -3.738 9.235c-8.555 11.309-29.267 12.293-43.8 5.78v-.01c-9.549-4.283-14.366-11.864-14.921-19.822-29.9-11.392-50.02-43.329-41.528-71.245l5.654-8.942 8.251-13.058c15.655-15.654 37.11-20.188 57.089-18.408a95.805 95.805 0 0 1 14.136 2.294c28.229 6.732 54.135 26.753 80.03 67.622 14.124 22.305 14.449 41.634.596 46.797z" fill="#b9acc0"/><path d="m299.761 253.644c-9.058 3.361-22.314-5.278-29.675-17.6-2.618 13.717-19.246 24.094-32.094 17.361-2.659 19.72-29.727 22.989-47.539 15.015v-.01c-8.9-14.147 23.969-16.188 10.3-18.408-59.069-9.651-73.012-70.267-35.277-97.517 18.9-13.652 37.371-15.288 53.654-13.256 28.229 6.732 54.135 26.753 80.03 67.622 14.129 22.301 14.454 41.63.601 46.793z" fill="#d5d6e4"/><path d="m278.054 245.927a45.74 45.74 0 0 1 -7.958-9.864 26.115 26.115 0 0 0 -.3-11.675c-4.732-17.571-16.889-31.906-31.046-41.12 18.362 6.042 46.142 37.732 39.304 62.659z" fill="#9c819c"/><path d="m247.6 255.487a18.559 18.559 0 0 1 -9.612-2.084c1.832-13.361-8.042-31.33-29.193-45.654 19.92 6.639 37.626 27.026 38.805 47.738z" fill="#9c819c"/><path d="m190.457 253.458a.876.876 0 0 1 -.135-.01 70.327 70.327 0 0 1 -39.044-19.219 1 1 0 1 1 1.39-1.438 68.328 68.328 0 0 0 37.922 18.676 1 1 0 0 1 -.133 1.991z" fill="#670a39"/><path d="m209.472 273.478c-10.149 0-19.938-3.1-26.448-8.541a22.933 22.933 0 0 1 -8.439-15.656 126.238 126.238 0 0 1 -11.8-5.857 1 1 0 1 1 1.024-1.717 122.283 122.283 0 0 0 12.079 5.947 1 1 0 0 1 .637.864 20.685 20.685 0 0 0 7.777 14.885c7.261 6.07 18.9 9.055 30.361 7.791 11.987-1.329 19.781-6.882 21.945-15.634 3.518-14.226-7.885-33.107-28.375-46.983a1 1 0 0 1 1.121-1.656c21.181 14.344 32.914 34.084 29.195 49.119-2.38 9.626-10.785 15.713-23.666 17.142a49.486 49.486 0 0 1 -5.411.296z" fill="#670a39"/><path d="m209.5 273.564q-.734 0-1.464-.023c-15.608-.5-31.961-8.986-33.449-24.249a71.259 71.259 0 0 1 -35.368-30.064c-8.139-13.9-10.295-28.994-6.071-42.507a1 1 0 0 1 1.909.6c-8.271 26.462 10.428 58.671 40.832 70.335a1 1 0 0 1 .64.864c1.008 14.48 16.646 22.543 31.572 23.025 13.1.418 27.118-5.064 28.9-18.273a1 1 0 0 1 1.455-.752c5.178 2.714 11.54 2.632 17.455-.223 6.831-3.3 11.887-9.6 13.193-16.44a1 1 0 0 1 1.84-.325c7.479 12.522 20.249 20.227 28.469 17.177a13.63 13.63 0 0 0 8.52-8.788c2.983-8.861-.521-22.177-9.614-36.534-28.016-44.214-57.7-66.283-93.41-69.455-22.6-2.013-42.594 4.421-56.293 18.119a1 1 0 1 1 -1.414-1.414c14.125-14.124 34.68-20.764 57.884-18.7 36.383 3.231 66.545 25.594 94.923 70.376 9.417 14.869 13 28.808 9.819 38.243a15.746 15.746 0 0 1 -9.718 10.025c-8.617 3.2-21.532-3.921-29.621-16.03a26.349 26.349 0 0 1 -13.709 15.549 21.511 21.511 0 0 1 -18.02.784c-2.574 12.987-16.139 18.68-29.26 18.68z" fill="#670a39"/><path d="m270.1 237.063a1.027 1.027 0 0 1 -.19-.018 1 1 0 0 1 -.793-1.172 25.229 25.229 0 0 0 -.288-11.227c-4.277-15.879-15.44-30.656-30.626-40.54a1 1 0 0 1 1.091-1.676c15.594 10.149 27.063 25.348 31.467 41.7a27.254 27.254 0 0 1 .32 12.124 1 1 0 0 1 -.981.809z" fill="#670a39"/><path d="m549.171 342.48c-.053.576-.105 1.163-.157 1.738 0 .032-.011.074-.011.1-2.209 24.471-4.293 51.109-6.366 80.606-2.2 31.351-7.487 55.664-15.832 73.612a.59.59 0 0 0 -.053.115c-14.659 31.434-38.722 43.287-71.978 39.12-110.176-17.089-114.4-17.749-114.417-17.749l-6.576-1.015c-116.49-18.084-163.233-25-178.668-27.633-11.078-1.9-6.041-1.571.911-1.571a58.19 58.19 0 0 0 19.613-4.314h.01c37.235-15.518 46.89-69.538 49.717-109.779 1.864-26.628 3.759-50.931 5.727-73.412a2.089 2.089 0 0 1 2.346-1.885l313.912 39.8a2.086 2.086 0 0 1 1.822 2.267z" fill="#557fa0"/><path d="m547.349 340.218c-330.587-40.884-315.878-42.2-316.258-37.915-1.968 22.481-3.863 46.784-5.727 73.412-2.825 40.209-12.489 94.265-49.717 109.779h-.01a59.017 59.017 0 0 1 -19.637 4.314c-6.941 0-11.955-.323-.889 1.571l.113-.065c24.476 3.786 299.45 46.446 299.55 46.462 33.256 4.167 57.319-7.686 71.978-39.12-26.23 53.863-136.5 23.332-208.311 14.031-88.979-11.524-134.208-23.015-120.186-39.8 20-23.936 28.885-62.6 30.25-93.716 1.142-26.042 3.759-49.727 5.728-71.675a2.073 2.073 0 0 1 2.345-1.843s312.54 37.4 312.593 36.827a2.086 2.086 0 0 0 -1.822-2.262z" fill="#4a607c"/><path d="m394.029 446.359c-3.388 13.471-2.4 8.825-3.22 11.731a1.053 1.053 0 0 1 -1.159.759l-96.174-13.9a1.043 1.043 0 0 1 -.849-1.342c1.206-3.924 2.3-8.063 3-11.059a1.042 1.042 0 0 1 1.161-.794l96.374 13.31a1.051 1.051 0 0 1 .867 1.295z" fill="#ff7be3"/><path d="m447.656 453.773q-1.638 6.363-3.594 12.076a1.047 1.047 0 0 1 -1.145.693l-37.937-5.479a1.048 1.048 0 0 1 -.843-1.357c1.255-3.979 2.275-7.734 3.252-11.729a1.049 1.049 0 0 1 1.159-.793l38.233 5.28a1.059 1.059 0 0 1 .875 1.309z" fill="#ff7be3"/><path d="m501.376 461.2c-1.275 4.716-2.513 8.585-3.882 12.389a1.047 1.047 0 0 1 -1.136.68l-38.153-5.518a1.036 1.036 0 0 1 -.836-1.369q1.968-5.69 3.612-12.023a1.046 1.046 0 0 1 1.152-.777l38.376 5.3a1.052 1.052 0 0 1 .867 1.318z" fill="#82b3fb"/><path d="m252.55 325.177 38.148 4.945a1.042 1.042 0 0 1 .909 1.118q-.5 6.119-1 12.429a1.049 1.049 0 0 1 -1.18.96l-38.1-5.014a1.043 1.043 0 0 1 -.908-1.11q.438-5.928.951-12.365a1.053 1.053 0 0 1 1.18-.963z" fill="#ffb9df"/><path d="m306.18 332.14 33.471 4.338a1.04 1.04 0 0 1 .908 1.116q-.413 5.1-.82 10.321c-.056.734-.117 1.469-.176 2.207a1.046 1.046 0 0 1 -1.179.957l-33.461-4.406a1.052 1.052 0 0 1 -.908-1.124q.486-6.322.987-12.46a1.043 1.043 0 0 1 1.178-.949z" fill="#fffdae"/><path d="m402.251 338.629c-.235 2.754-.047-.215-2.152 25.337a1.053 1.053 0 0 1 -1.2.956l-29.091-4.444a1.042 1.042 0 0 1 -.886-1.115c.545-6.544 1.652-19.689 2.147-25.31a1.043 1.043 0 0 1 1.2-.938l29.1 4.386a1.05 1.05 0 0 1 .882 1.128z" fill="#b5dcfa"/><path d="m440.425 371.258-27.546-4.2a1.047 1.047 0 0 1 -.689-1.651c6.873-9.457 13.564-18.681 16.107-22.187a1.041 1.041 0 0 1 1.8.2c1.392 3.215 4.892 11.294 11.444 26.386a1.048 1.048 0 0 1 -1.116 1.452z" fill="#ffb9df"/><path d="m337.928 371.808q-.423 5.766-.833 11.688a1.051 1.051 0 0 1 -1.186.969l-59.562-8.111-12.44-1.7a1.054 1.054 0 0 1 -.9-1.119q.327-4.55.652-8.993.084-1.122.165-2.232a1.047 1.047 0 0 1 1.179-.965l12.321 1.605 59.7 7.747a1.041 1.041 0 0 1 .904 1.111z" fill="#ffb9df"/><path d="m352.523 372.706 104.11 13.51a1.046 1.046 0 0 1 .911 1.11q-.082 1.165-.173 2.347-.368 5-.728 10.105a1.051 1.051 0 0 1 -1.185.969l-104.065-14.177a1.051 1.051 0 0 1 -.9-1.117q.427-5.977.854-11.789a1.044 1.044 0 0 1 1.176-.958z" fill="#ffb9df"/><path d="m510.609 394.211c-.265 3.686-.584 7.949-.929 12.789a1.054 1.054 0 0 1 -1.186.972l-38.661-5.266a1.044 1.044 0 0 1 -.9-1.11c.258-3.52.724-9.944.915-12.552a1.042 1.042 0 0 1 1.179-.956l38.676 5.018a1.039 1.039 0 0 1 .906 1.105z" fill="#fffdae"/><path d="m364.766 409.888q-.685 6.1-1.56 11.808a1.047 1.047 0 0 1 -1.181.874l-63.073-8.586a1.036 1.036 0 0 1 -.89-1.189q.855-5.48 1.517-11.339a1.048 1.048 0 0 1 1.172-.924l63.106 8.191a1.057 1.057 0 0 1 .909 1.165z" fill="#7fe2dd"/><path d="m507.73 428.445c-.5 4.246-1.087 8.378-1.811 12.689a1.056 1.056 0 0 1 -1.179.872l-127.287-17.331a1.036 1.036 0 0 1 -.89-1.188q.888-5.717 1.58-11.831a1.049 1.049 0 0 1 1.172-.925l127.508 16.546a1.054 1.054 0 0 1 .907 1.168z" fill="#82b3fb"/><path d="m365.275 502.506a52.729 52.729 0 0 1 -13.42 8.355 2.523 2.523 0 0 1 -1.152.146l-59.636-8.891c-1.845-.275-1.968-1.14-.3-1.974a53.258 53.258 0 0 0 11.608-7.906 2.379 2.379 0 0 1 1.695-.516l60.683 8.942c1.273.188 1.502 1.011.522 1.844z" fill="#af4fc6"/><path d="m467.3 515.769c1.449.213 1.66 1.081.448 1.9-5.54 3.759-14.178 6.731-18.615 7.84a2.06 2.06 0 0 1 -.805.036l-80.612-12.012c-1.831-.273-1.956-1.138-.3-1.972a52.891 52.891 0 0 0 11.635-8.019 2.38 2.38 0 0 1 1.706-.525z" fill="#af4fc6"/><ellipse cx="466.782" cy="361.707" fill="#fffdae" rx="13.811" ry="15.749" transform="matrix(.13960517 -.99020725 .99020725 .13960517 43.455 773.425)"/><path d="m361.434 368.056a1.5 1.5 0 0 1 -1.391-.939c-5.094-12.607-1.958-32.292 4.036-40.185a1.5 1.5 0 0 1 2.389 1.815c-5.492 7.232-8.252 25.841-3.644 37.246a1.5 1.5 0 0 1 -1.39 2.063z" fill="#ff7be3"/><path d="m486.321 383.5a1.5 1.5 0 0 1 -1.209-2.386c5.365-7.327 7.8-25.981 2.993-37.3a1.5 1.5 0 1 1 2.762-1.173c5.313 12.517 2.52 32.253-3.334 40.25a1.5 1.5 0 0 1 -1.212.609z" fill="#ff7be3"/><path d="m437.17 485.464a92.133 92.133 0 0 1 -5.879 10.716 1.055 1.055 0 0 1 -1.044.47l-152.211-22.719a1.042 1.042 0 0 1 -.7-1.627 90.079 90.079 0 0 0 5.993-10.167 1.046 1.046 0 0 1 1.081-.565l151.959 22.408a1.054 1.054 0 0 1 .801 1.484z" fill="#00b2ad"/><path d="m482.879 514.7a1.5 1.5 0 0 1 -.649-2.853c7.654-3.666 16.869-15.244 16.712-23.533a1.5 1.5 0 0 1 3-.057c.181 9.594-9.927 22.23-18.416 26.3a1.5 1.5 0 0 1 -.647.143z" fill="#ff7be3"/><ellipse cx="470.847" cy="496.505" fill="#7fe2dd" rx="15.357" ry="11.06" transform="matrix(.97425215 -.2254612 .2254612 .97425215 -99.821 118.945)"/><path d="m438.345 506.87h-.012a1.5 1.5 0 0 1 -1.488-1.513c.08-9.6 10.517-22.031 19.1-25.927a1.5 1.5 0 0 1 1.239 2.732c-7.75 3.516-17.275 14.921-17.344 23.22a1.5 1.5 0 0 1 -1.495 1.488z" fill="#ff7be3"/><path d="m467.138 539.583a100.424 100.424 0 0 1 -12.488-.815c-55.255-8.569-83.86-13.007-98.659-15.3l-15.4-2.393c-.068-.01-.157-.024-.256-.046a.915.915 0 0 1 -.1-.01l-6.6-1.016c-61.255-9.508-103.308-15.942-131.136-20.2-21.68-3.317-34.766-5.319-42.887-6.622-11.813-1.894-11.809-1.941-11.723-3.143.078-1.088.731-1.094 4.358-1.125l.956-.009c.177-.013.515-.023.95-.036a58.141 58.141 0 0 0 21.107-4.3c.027-.011.054-.021.082-.03 28.292-11.839 44.787-48.476 49.03-108.9 1.879-26.838 3.753-50.857 5.729-73.429a3.089 3.089 0 0 1 3.466-2.79l313.914 39.8a3.065 3.065 0 0 1 2.691 3.347l-.156 1.736c-2.162 23.967-4.247 50.361-6.376 80.69-2.207 31.476-7.416 55.669-15.923 73.963-.019.039-.019.038-.016.027-.011.031-.023.06-.037.09-12.675 27.174-32.546 40.51-60.526 40.511zm-126.583-20.54c.554.087 8.5 1.326 114.373 17.745 33.642 4.216 56.85-8.393 70.916-38.55.021-.052.044-.1.061-.134 8.395-18.054 13.544-42.017 15.734-73.245 2.13-30.342 4.216-56.75 6.379-80.731l.157-1.738a1.091 1.091 0 0 0 -.947-1.176l-313.917-39.8a1.092 1.092 0 0 0 -.826.235 1.077 1.077 0 0 0 -.4.746c-1.975 22.559-3.848 46.567-5.726 73.394-4.3 61.288-21.237 98.51-50.329 110.632-.029.012-.057.022-.086.031a59.137 59.137 0 0 1 -18.869 4.3c7.85 1.286 22.238 3.487 45.719 7.079 27.828 4.258 69.883 10.692 131.138 20.2l6.6 1.016z" fill="#670a39"/></svg></g></svg>