<?xml version="1.0" encoding="utf-8"?>
<!-- Generator: Adobe Illustrator 24.3.0, SVG Export Plug-In . SVG Version: 6.00 Build 0)  -->
<svg version="1.1" id="illustrations" xmlns="http://www.w3.org/2000/svg" xmlns:xlink="http://www.w3.org/1999/xlink" x="0px"
	 y="0px" viewBox="0 0 2000 2000" style="enable-background:new 0 0 2000 2000;" xml:space="preserve">
<style type="text/css">
	.st0{fill:#FFFFFF;stroke:#231F20;stroke-width:5;stroke-miterlimit:10;}
	.st1{fill:none;stroke:#231F20;stroke-width:5;stroke-miterlimit:10;}
	.st2{fill:#231F20;}
	.st3{fill:#231F20;stroke:#231F20;stroke-width:5;stroke-linejoin:round;stroke-miterlimit:10;}
	.st4{fill:#FFFFFF;stroke:#231F20;stroke-width:5;stroke-linejoin:round;stroke-miterlimit:10;}
	.st5{fill:#231F20;stroke:#231F20;stroke-width:5;stroke-miterlimit:10;}
	.st6{clip-path:url(#SVGID_2_);fill:#FFFFFF;stroke:#231F20;stroke-width:5;stroke-miterlimit:10;}
	.st7{clip-path:url(#SVGID_4_);fill:none;stroke:#FFFFFF;stroke-width:5;stroke-miterlimit:10;}
	.st8{fill:#FFFFFF;stroke:#231F20;stroke-width:5;stroke-linecap:round;stroke-linejoin:round;stroke-miterlimit:10;}
	.st9{fill:#231F20;stroke:#231F20;stroke-width:5;stroke-linecap:round;stroke-linejoin:round;stroke-miterlimit:10;}
	.st10{fill:#FFFFFF;stroke:#FFFFFF;stroke-width:5;stroke-linecap:round;stroke-linejoin:round;stroke-miterlimit:10;}
	.st11{fill:none;stroke:#231F20;stroke-width:5;stroke-linecap:round;stroke-linejoin:round;stroke-miterlimit:10;}
	.st12{fill:none;stroke:#FFFFFF;stroke-width:5;stroke-linecap:round;stroke-linejoin:round;stroke-miterlimit:10;}
	.st13{fill:none;stroke:#231F20;stroke-width:2;stroke-linecap:round;stroke-linejoin:round;}
	.st14{fill:none;stroke:#231F20;stroke-width:2;stroke-linecap:round;stroke-linejoin:round;stroke-dasharray:0,9.9996;}
	
		.st15{fill:none;stroke:#231F20;stroke-width:2;stroke-linecap:round;stroke-linejoin:round;stroke-miterlimit:10;stroke-dasharray:0,10;}
	
		.st16{fill:none;stroke:#231F20;stroke-width:3;stroke-linecap:round;stroke-linejoin:round;stroke-miterlimit:10;stroke-dasharray:0,10;}
	.st17{clip-path:url(#SVGID_6_);fill:#FFFFFF;}
	.st18{fill:#231F20;stroke:#FFFFFF;stroke-width:5;stroke-miterlimit:10;}
	.st19{fill:#FFFFFF;}
	.st20{fill:none;stroke:#231F20;stroke-width:8;stroke-linecap:round;stroke-linejoin:round;stroke-miterlimit:10;}
</style>
<g>
	<line class="st1" x1="1212.8" y1="853.3" x2="1368.4" y2="1008.8"/>
	<line class="st1" x1="1368.4" y1="853.3" x2="1212.8" y2="1008.8"/>
	<path class="st1" d="M1212.8,1008.8c0,0,60.3-8.5,103.7-51.9s51.9-103.7,51.9-103.7"/>
	<circle class="st1" cx="1290.6" cy="931" r="110"/>
	<path class="st1" d="M1212.8,1008.8c0,0,69.2,34.5,129.6-25.9c60.4-60.4,25.9-129.6,25.9-129.6"/>
	<path class="st1" d="M1212.8,1008.8c0,0,8.5-60.3,51.9-103.7s103.7-51.9,103.7-51.9"/>
	<path class="st1" d="M1212.8,1008.8c0,0-34.5-69.2,25.9-129.6s129.6-25.9,129.6-25.9"/>
	<path class="st1" d="M1186.2,896.3c11.9,4.7,41.7,19.4,80.7,58.4c39,39,53.7,68.8,58.4,80.7"/>
	<path class="st1" d="M1180.9,938.4c11.9,4.3,33,15.1,60.1,42.2c27,27,37.8,47.9,42.1,59.9"/>
	<path class="st1" d="M1255.9,826.6c4.7,11.9,19.4,41.7,58.4,80.7c39,39,68.8,53.7,80.7,58.4"/>
	<path class="st1" d="M1298,821.3c4.3,11.9,15.1,33,42.2,60.1c27,27,47.9,37.8,59.9,42.1"/>
</g>
<g>
	<rect x="603.1" y="1067.8" class="st2" width="4" height="177.4"/>
	
		<rect x="603.1" y="1067.8" transform="matrix(-1.836970e-16 1 -1 -1.836970e-16 1761.5929 551.3932)" class="st2" width="4" height="177.4"/>
	
		<rect x="603.1" y="1067.8" transform="matrix(0.7071 -0.7071 0.7071 0.7071 -640.5344 766.5992)" class="st2" width="4" height="177.4"/>
	
		<rect x="603.1" y="1067.8" transform="matrix(0.7071 0.7071 -0.7071 0.7071 994.9937 -89.1412)" class="st2" width="4" height="177.4"/>
	<circle class="st2" cx="605.1" cy="1156.5" r="15.8"/>
</g>
<g>
	<g>
		<path class="st0" d="M321.3,848.4l921.1,14.9l-2.2,139c-0.3,16.6-13.9,29.8-30.5,29.5L348.5,1018c-16.6-0.3-29.8-13.9-29.5-30.5
			L321.3,848.4z"/>
		<path class="st5" d="M675.3,894.8l211.8,3.4c24.7,0.4,44.4,20.8,44.1,45.5v0c-0.4,24.7-20.8,44.4-45.5,44.1l-211.8-3.4
			c-24.7-0.4-44.4-20.8-44.1-45.5v0C630.2,914.1,650.6,894.4,675.3,894.8z"/>
		<path class="st0" d="M353,738.5l861.1,13.9c16.6,0.3,29.8,13.9,29.5,30.5l-1.3,80.4l-921.1-14.9l1.3-80.4
			C322.8,751.5,336.5,738.3,353,738.5z"/>
		<circle class="st5" cx="388.5" cy="794.3" r="17.4"/>
		<circle class="st5" cx="448.8" cy="795.3" r="17.4"/>
		<circle class="st5" cx="509" cy="796.3" r="17.4"/>
	</g>
	<g>
		<path class="st0" d="M846.9,1060.7l822.7-17.8l4.5,208.7c0.4,16.6-12.8,30.3-29.3,30.6l-762.8,16.5c-16.6,0.4-30.3-12.8-30.6-29.3
			L846.9,1060.7z"/>
		<g>
			<path class="st0" d="M1000.7,1142l231.9-5c10.3-0.2,18.8,7.9,19,18.2l0.9,42.7c0.2,10.3-7.9,18.8-18.2,19l-231.9,5
				c-10.3,0.2-18.8-7.9-19-18.2l-0.9-42.7C982.3,1150.7,990.4,1142.2,1000.7,1142z"/>
			<path class="st5" d="M1287.7,1135.7l231.9-5c10.3-0.2,18.8,7.9,19,18.2l0.9,42.7c0.2,10.3-7.9,18.8-18.2,19l-231.9,5
				c-10.3,0.2-18.8-7.9-19-18.2l-0.9-42.7C1269.2,1144.5,1277.4,1136,1287.7,1135.7z"/>
		</g>
		<path class="st0" d="M874.8,961.5l762.8-16.5c16.6-0.4,30.3,12.8,30.6,29.3l1.5,68.6l-822.7,17.8l-1.5-68.6
			C845.1,975.5,858.2,961.8,874.8,961.5z"/>
		<circle class="st1" cx="905.1" cy="1010.1" r="15.6"/>
		<circle class="st1" cx="959" cy="1009" r="15.6"/>
		<circle class="st1" cx="1012.8" cy="1007.8" r="15.6"/>
	</g>
</g>
<g>
	<path class="st0" d="M1266.6,451.6l-7.5-75.6c-1.2-12.5-12.3-21.5-24.8-20.3l-773.8,77c-12.5,1.2-21.5,12.3-20.3,24.8l7.5,75.6
		l8,80.1c1.2,12.5,12.3,21.5,24.8,20.3l773.8-77c12.5-1.2,21.5-12.3,20.3-24.8L1266.6,451.6z"/>
	<line class="st1" x1="1077.4" y1="371.3" x2="1097.4" y2="572.1"/>
	<g>
		<circle class="st5" cx="501.8" cy="478.2" r="15.6"/>
		<circle class="st5" cx="555.4" cy="472.8" r="15.6"/>
		<circle class="st5" cx="609" cy="467.5" r="15.6"/>
	</g>
</g>
<g>
	<g>
		<path class="st0" d="M1133.1,1382.3l8.4-75.5c1.4-12.4-7.6-23.6-20-25l-772.8-86c-12.4-1.4-23.6,7.6-25,20l-8.4,75.5l-8.9,80
			c-1.4,12.4,7.6,23.6,20,25l772.8,86c12.4,1.4,23.6-7.6,25-20L1133.1,1382.3z"/>
		<line class="st1" x1="964.8" y1="1264.4" x2="942.4" y2="1464.9"/>
		<g>
			<circle class="st5" cx="379.6" cy="1248.9" r="15.6"/>
			<circle class="st5" cx="433.1" cy="1254.8" r="15.6"/>
			<circle class="st5" cx="486.6" cy="1260.8" r="15.6"/>
		</g>
	</g>
	<g>
		<path class="st5" d="M1508.1,1613.7l157.5-7.8c12.5-0.6,22.1-11.3,21.5-23.8l-4-80.4l-3.8-75.9c-0.6-12.5-11.3-22.1-23.8-21.5
			l-157.5,7.8L1508.1,1613.7z"/>
		<path class="st0" d="M1498.1,1412.2l-619.2,30.7c-12.5,0.6-22.1,11.3-21.5,23.8l3.8,75.9l4,80.4c0.6,12.5,11.3,22.1,23.8,21.5
			l619.2-30.7L1498.1,1412.2z"/>
		<circle class="st1" cx="917.9" cy="1490.3" r="15.6"/>
		<circle class="st1" cx="971.7" cy="1487.6" r="15.6"/>
		<circle class="st1" cx="1025.5" cy="1485" r="15.6"/>
	</g>
</g>
<g>
	<path class="st2" d="M1402.6,485.7v65h3.6v-65c-0.6,0.1-1.2,0.1-1.8,0.1C1403.8,485.8,1403.2,485.8,1402.6,485.7z"/>
	<path class="st2" d="M1406.2,457.7v-65h-3.6v65c0.6-0.1,1.2-0.1,1.8-0.1C1405,457.6,1405.6,457.7,1406.2,457.7z"/>
	<path class="st2" d="M1418.4,473.5h65v-3.6h-65c0.1,0.6,0.1,1.2,0.1,1.8S1418.5,472.9,1418.4,473.5z"/>
	<path class="st2" d="M1390.4,469.9h-65v3.6h65c-0.1-0.6-0.1-1.2-0.1-1.8S1390.4,470.5,1390.4,469.9z"/>
	<path class="st2" d="M1395.8,460.6l-45.9-45.9l-2.5,2.5l45.9,45.9C1394,462.1,1394.8,461.3,1395.8,460.6z"/>
	<path class="st2" d="M1413,482.9l45.9,45.9l2.5-2.5l-45.9-45.9C1414.8,481.3,1414,482.1,1413,482.9z"/>
	<path class="st2" d="M1415.6,463.1l45.9-45.9l-2.5-2.5l-45.9,45.9C1414,461.3,1414.8,462.1,1415.6,463.1z"/>
	<path class="st2" d="M1393.3,480.3l-45.9,45.9l2.5,2.5l45.9-45.9C1394.8,482.1,1394,481.3,1393.3,480.3z"/>
</g>
<g>
	<path class="st5" d="M1492.1,811l156.4,20c12.4,1.6,23.8-7.2,25.4-19.6l10.2-79.8l9.6-75.4c1.6-12.4-7.2-23.8-19.6-25.4l-156.4-20
		L1492.1,811z"/>
	<path class="st0" d="M1517.7,610.8l-614.9-78.6c-12.4-1.6-23.8,7.2-25.4,19.6l-9.6,75.4L857.5,707c-1.6,12.4,7.2,23.8,19.6,25.4
		l614.9,78.6L1517.7,610.8z"/>
	<circle class="st1" cx="932.8" cy="585.8" r="15.6"/>
	<circle class="st1" cx="986.2" cy="592.6" r="15.6"/>
	<circle class="st1" cx="1039.6" cy="599.4" r="15.6"/>
</g>
<g>
	<circle class="st0" cx="735.7" cy="1472" r="51.9"/>
	<path class="st1" d="M735.7,1472c31.6,5.9,24.2,45.9,24.2,45.9"/>
	<path class="st1" d="M735.7,1472c20.9-24.4,51.9,2,51.9,2"/>
	<path class="st1" d="M735.7,1472c-10.7-30.3,27.7-43.9,27.7-43.9"/>
	<path class="st1" d="M735.7,1472c-31.6-5.9-24.2-45.9-24.2-45.9"/>
	<path class="st1" d="M735.7,1472c-20.9,24.4-51.9-2-51.9-2"/>
	<path class="st1" d="M735.7,1472c10.7,30.3-27.7,43.9-27.7,43.9"/>
</g>
</svg>
