<?xml version="1.0" encoding="utf-8"?>
<!-- Generator: Adobe Illustrator 24.3.2, SVG Export Plug-In . SVG Version: 6.00 Build 0)  -->
<svg version="1.1" xmlns="http://www.w3.org/2000/svg" xmlns:xlink="http://www.w3.org/1999/xlink" x="0px" y="0px"
	 viewBox="0 0 2500 2500"  xml:space="preserve">
<style type="text/css">
	.st0{fill:#FFFFFF;}
	.st1{fill:#FFFFFF;stroke:#231F20;stroke-width:5;stroke-miterlimit:10;}
	.st2{fill:none;stroke:#231F20;stroke-width:5;stroke-miterlimit:10;}
	.st3{fill:#231F20;}
	
		.st4{fill:none;stroke:#231F20;stroke-width:5;stroke-linecap:round;stroke-linejoin:round;stroke-miterlimit:10;stroke-dasharray:0,20;}
	
		.st5{fill:none;stroke:#231F20;stroke-width:5;stroke-linecap:round;stroke-linejoin:round;stroke-miterlimit:10;stroke-dasharray:0,3.4346;}
	.st6{fill:#FFFFFF;stroke:#231F20;stroke-width:5;stroke-linecap:round;stroke-linejoin:round;stroke-miterlimit:10;}
	.st7{fill:#231F20;stroke:#231F20;stroke-width:5;stroke-linecap:round;stroke-linejoin:round;stroke-miterlimit:10;}
	.st8{fill:none;stroke:#231F20;stroke-width:5;stroke-linecap:round;stroke-linejoin:round;stroke-miterlimit:10;}
	
		.st9{fill:none;stroke:#231F20;stroke-width:5;stroke-linecap:round;stroke-linejoin:round;stroke-miterlimit:10;stroke-dasharray:0,24.7469;}
	.st10{fill:#231F20;stroke:#231F20;stroke-width:5;stroke-miterlimit:10;}
	.st11{fill:#FFFFFF;stroke:#FFFFFF;stroke-width:5;stroke-miterlimit:10;}
	.st12{fill:none;stroke:#FFFFFF;stroke-width:5;stroke-miterlimit:10;}
	
		.st13{clip-path:url(#SVGID_2_);fill:none;stroke:#FFFFFF;stroke-width:5;stroke-linecap:round;stroke-linejoin:round;stroke-miterlimit:10;}
	.st14{fill:#231F20;stroke:#FFFFFF;stroke-width:5;stroke-miterlimit:10;}
	.st15{fill:none;stroke:#FFFFFF;stroke-width:5;stroke-linecap:round;stroke-linejoin:round;stroke-miterlimit:10;}
</style>
<g id="work">
	<g>
		<g>
			<g>
				<path class="st1" d="M332.7,825.7h1834.7v942.9c0,27.9-22.6,50.5-50.5,50.5H383.2c-27.9,0-50.5-22.6-50.5-50.5V825.7z"/>
				<path class="st10" d="M383.2,605.8h1733.6c27.9,0,50.5,22.6,50.5,50.5v169.4H332.7V656.3C332.7,628.4,355.3,605.8,383.2,605.8z"
					/>
				<circle class="st11" cx="464.8" cy="715.8" r="34.7"/>
				<circle class="st11" cx="584.9" cy="715.8" r="34.7"/>
				<circle class="st11" cx="704.9" cy="715.8" r="34.7"/>
			</g>
		</g>
		<g>
			<g>
				<line class="st2" x1="434.7" y1="1148" x2="434.7" y2="1208.5"/>
				<line class="st2" x1="1250" y1="1148" x2="1250" y2="1208.5"/>
				<line class="st2" x1="434.7" y1="1178.3" x2="1250" y2="1178.3"/>
				<path class="st1" d="M965.5,1132.7h-29.5c-2.8,0-5,2.2-5,5v81.3c0,2.8,2.2,5,5,5h29.5c2.8,0,5-2.2,5-5v-81.3
					C970.5,1134.9,968.2,1132.7,965.5,1132.7z"/>
			</g>
			<g>
				<line class="st2" x1="434.7" y1="1305.6" x2="434.7" y2="1366.1"/>
				<line class="st2" x1="1250" y1="1305.6" x2="1250" y2="1366.1"/>
				<line class="st2" x1="434.7" y1="1335.8" x2="1250" y2="1335.8"/>
				<path class="st1" d="M658.6,1290.2h-29.5c-2.8,0-5,2.2-5,5v81.3c0,2.8,2.2,5,5,5h29.5c2.8,0,5-2.2,5-5v-81.3
					C663.6,1292.4,661.4,1290.2,658.6,1290.2z"/>
			</g>
			<g>
				<line class="st2" x1="434.7" y1="1463.1" x2="434.7" y2="1523.6"/>
				<line class="st2" x1="1250" y1="1463.1" x2="1250" y2="1523.6"/>
				<line class="st2" x1="434.7" y1="1493.4" x2="1250" y2="1493.4"/>
				<path class="st1" d="M843.8,1447.7h-29.5c-2.8,0-5,2.2-5,5v81.3c0,2.8,2.2,5,5,5h29.5c2.8,0,5-2.2,5-5v-81.3
					C848.8,1450,846.6,1447.7,843.8,1447.7z"/>
			</g>
			<g>
				<line class="st2" x1="434.7" y1="1620.7" x2="434.7" y2="1681.2"/>
				<line class="st2" x1="1250" y1="1620.7" x2="1250" y2="1681.2"/>
				<line class="st2" x1="434.7" y1="1650.9" x2="1250" y2="1650.9"/>
				<path class="st1" d="M1136.2,1605.3h-29.5c-2.8,0-5,2.2-5,5v81.3c0,2.8,2.2,5,5,5h29.5c2.8,0,5-2.2,5-5v-81.3
					C1141.2,1607.5,1138.9,1605.3,1136.2,1605.3z"/>
			</g>
		</g>
		<g>
			<g>
				<path class="st1" d="M916.5,942.7H429.3c-2.8,0-5,2.2-5,5v81.3c0,2.8,2.2,5,5,5h487.2c2.8,0,5-2.2,5-5v-81.3
					C921.5,944.9,919.3,942.7,916.5,942.7z"/>
				<polyline class="st2" points="885.1,971.6 854,1002.7 822.8,971.6 				"/>
			</g>
			<g>
				<path class="st7" d="M1493.6,942.7h-487.2c-2.8,0-5,2.2-5,5v81.3c0,2.8,2.2,5,5,5h487.2c2.8,0,5-2.2,5-5v-81.3
					C1498.6,944.9,1496.4,942.7,1493.6,942.7z"/>
				<polyline class="st12" points="1462.2,971.6 1431.1,1002.7 1400,971.6 				"/>
			</g>
			<g>
				<path class="st1" d="M2070.7,942.7h-487.2c-2.8,0-5,2.2-5,5v81.3c0,2.8,2.2,5,5,5h487.2c2.8,0,5-2.2,5-5v-81.3
					C2075.7,944.9,2073.5,942.7,2070.7,942.7z"/>
				<polyline class="st2" points="2039.3,971.6 2008.2,1002.7 1977.1,971.6 				"/>
			</g>
		</g>
		<g>
			<path class="st10" d="M1565.8,1542.4h421.8c49.3,0,89.2,39.9,89.2,89.2v0c0,49.3-39.9,89.2-89.2,89.2h-421.8
				c-49.3,0-89.2-39.9-89.2-89.2v0C1476.7,1582.3,1516.6,1542.4,1565.8,1542.4z"/>
			<polygon class="st6" points="1778,1394.6 1808.9,1517.9 1897.2,1426.5 1862.3,1548.7 1984.5,1513.8 1893.2,1602.2 2016.4,1633 
				1893.2,1663.9 1984.5,1752.2 1862.3,1717.3 1897.2,1839.5 1808.9,1748.2 1778,1871.4 1747.2,1748.2 1658.8,1839.5 1693.7,1717.3 
				1571.5,1752.2 1662.9,1663.9 1539.6,1633 1662.9,1602.2 1571.5,1513.8 1693.7,1548.7 1658.8,1426.5 1747.2,1517.9 			"/>
			<polygon class="st3" points="2207.9,1748.2 1993,1690.6 1778,1633 1835.6,1848 1893.2,2062.9 1998.6,1919.6 2104.7,2025.7 
				2170.7,1959.7 2064.6,1853.6 			"/>
			<g>
				<defs>
					<polygon id="SVGID_1_" points="2207.9,1748.2 1993,1690.6 1778,1633 1835.6,1848 1893.2,2062.9 1998.6,1919.6 2104.7,2025.7 
						2170.7,1959.7 2064.6,1853.6 					"/>
				</defs>
				<clipPath id="SVGID_2_">
					<use xlink:href="#SVGID_1_"  style="overflow:visible;"/>
				</clipPath>
				<polygon class="st13" points="1778,1394.6 1808.9,1517.9 1897.2,1426.5 1862.3,1548.7 1984.5,1513.8 1893.2,1602.2 2016.4,1633 
					1893.2,1663.9 1984.5,1752.2 1862.3,1717.3 1897.2,1839.5 1808.9,1748.2 1778,1871.4 1747.2,1748.2 1658.8,1839.5 
					1693.7,1717.3 1571.5,1752.2 1662.9,1663.9 1539.6,1633 1662.9,1602.2 1571.5,1513.8 1693.7,1548.7 1658.8,1426.5 
					1747.2,1517.9 				"/>
			</g>
		</g>
		<g>
			<g>
				<rect x="1479.9" y="1188.1" class="st7" width="180.4" height="23.5"/>
				<rect x="1479.9" y="1144.9" class="st7" width="150" height="23.5"/>
			</g>
			<path class="st1" d="M1437.6,1132.7h-81.3c-2.8,0-5,2.2-5,5v81.3c0,2.8,2.2,5,5,5h81.3c2.8,0,5-2.2,5-5v-81.3
				C1442.6,1134.9,1440.3,1132.7,1437.6,1132.7z"/>
		</g>
		<g>
			<g>
				<path class="st10" d="M1847.8,1132.7h-81.3c-2.8,0-5,2.2-5,5v81.3c0,2.8,2.2,5,5,5h81.3c2.8,0,5-2.2,5-5v-81.3
					C1852.8,1134.9,1850.5,1132.7,1847.8,1132.7z"/>
				<polyline class="st12" points="1778.7,1184.5 1796.5,1201.7 1835.6,1154.9 				"/>
			</g>
			<g>
				<rect x="1890.1" y="1188.1" class="st7" width="162" height="23.5"/>
				<rect x="1890.1" y="1144.9" class="st7" width="185.7" height="23.5"/>
			</g>
		</g>
		<g>
			<g>
				<rect x="1890.1" y="1345.7" class="st7" width="180.4" height="23.5"/>
				<rect x="1890.1" y="1302.5" class="st7" width="150" height="23.5"/>
			</g>
			<path class="st1" d="M1847.8,1290.2h-81.3c-2.8,0-5,2.2-5,5v81.3c0,2.8,2.2,5,5,5h81.3c2.8,0,5-2.2,5-5v-81.3
				C1852.8,1292.4,1850.5,1290.2,1847.8,1290.2z"/>
		</g>
		<g>
			<g>
				<rect x="1479.9" y="1345.7" class="st7" width="162" height="23.5"/>
				<rect x="1479.9" y="1302.5" class="st7" width="185.7" height="23.5"/>
			</g>
			<path class="st10" d="M1437.6,1290.2h-81.3c-2.8,0-5,2.2-5,5v81.3c0,2.8,2.2,5,5,5h81.3c2.8,0,5-2.2,5-5v-81.3
				C1442.6,1292.4,1440.3,1290.2,1437.6,1290.2z"/>
			<polyline class="st12" points="1368.4,1342 1386.2,1359.2 1425.4,1312.4 			"/>
		</g>
		<polygon class="st3" points="144.1,515.9 154,541.5 179.6,551.4 154,561.3 144.1,586.9 134.2,561.3 108.6,551.4 134.2,541.5 		"/>
		<polygon class="st3" points="986.2,2038.3 996.1,2064 1021.7,2073.8 996.1,2083.7 986.2,2109.4 976.3,2083.7 950.7,2073.8 
			976.4,2064 		"/>
		<polygon class="st3" points="1539.6,255.6 1549.5,281.2 1575.1,291.1 1549.5,301 1539.6,326.6 1529.7,301 1504.1,291.1 
			1529.7,281.2 		"/>
		<polygon class="st0" points="1925.6,680.2 1935.5,705.9 1961.1,715.8 1935.5,725.6 1925.6,751.3 1915.7,725.6 1890.1,715.8 
			1915.7,705.9 		"/>
	</g>
</g>
</svg>
