<svg width="20" height="16" viewBox="0 0 20 16" fill="none" xmlns="http://www.w3.org/2000/svg">
<path fill-rule="evenodd" clip-rule="evenodd" d="M3.72649 0.5C4.9243 0.5 5.95299 1.41628 5.95299 2.61538C5.95299 2.6324 5.95278 2.64936 5.95237 2.66626L14.2788 6.46592C14.6829 6.10294 15.2273 5.88461 15.812 5.88461C17.0098 5.88461 18.0385 6.80089 18.0385 8C18.0385 9.1991 17.0098 10.1154 15.812 10.1154C15.3374 10.1154 14.8893 9.97153 14.5213 9.72323L5.93712 13.6405C5.80306 14.7117 4.83753 15.5 3.72649 15.5C2.52868 15.5 1.5 14.5837 1.5 13.3846C1.5 12.1855 2.52868 11.2692 3.72649 11.2692C4.44954 11.2692 5.11096 11.6031 5.52169 12.1315L12.5947 8.90384H5.74152C5.38023 9.63017 4.59814 10.1154 3.72649 10.1154C2.52868 10.1154 1.5 9.1991 1.5 8C1.5 6.80089 2.52868 5.88461 3.72649 5.88461C4.7019 5.88461 5.56516 6.49223 5.8521 7.36538H12.5276L5.33184 4.08166C4.92164 4.48508 4.34674 4.73077 3.72649 4.73077C2.52868 4.73077 1.5 3.81449 1.5 2.61538C1.5 1.41628 2.52868 0.5 3.72649 0.5ZM4.95299 2.61538C4.95299 2.03018 4.43572 1.5 3.72649 1.5C3.01727 1.5 2.5 2.03018 2.5 2.61538C2.5 3.20059 3.01727 3.73077 3.72649 3.73077C4.43572 3.73077 4.95299 3.20059 4.95299 2.61538ZM17.0385 8C17.0385 7.4148 16.5212 6.88461 15.812 6.88461C15.1027 6.88461 14.5855 7.4148 14.5855 8C14.5855 8.5852 15.1027 9.11538 15.812 9.11538C16.5212 9.11538 17.0385 8.5852 17.0385 8ZM3.72649 6.88461C4.43572 6.88461 4.95299 7.4148 4.95299 8C4.95299 8.5852 4.43572 9.11538 3.72649 9.11538C3.01727 9.11538 2.5 8.5852 2.5 8C2.5 7.4148 3.01727 6.88461 3.72649 6.88461ZM2.5 13.3846C2.5 12.7994 3.01727 12.2692 3.72649 12.2692C4.43572 12.2692 4.95299 12.7994 4.95299 13.3846C4.95299 13.9698 4.43572 14.5 3.72649 14.5C3.01727 14.5 2.5 13.9698 2.5 13.3846Z" fill="#193154"/>
</svg>
