<svg width="20" height="16" viewBox="0 0 20 16" fill="none" xmlns="http://www.w3.org/2000/svg">
<path fill-rule="evenodd" clip-rule="evenodd" d="M16.1975 4.99791C17.4548 4.99791 18.5 4.00513 18.5 2.74895C18.5 1.49277 17.4548 0.499985 16.1975 0.499985C15.1065 0.499985 14.1752 1.24745 13.9479 2.26588L9.65716 4.29651L6.10104 2.61367C6.02919 1.42223 5.01439 0.49999 3.80256 0.49999C2.54523 0.49999 1.50001 1.49277 1.50001 2.74896C1.50001 4.00514 2.54523 4.99792 3.80256 4.99792C4.53201 4.99792 5.19007 4.66376 5.61405 4.13788L7.8032 5.17392L5.35323 6.33341C4.94192 5.96793 4.39585 5.74688 3.80256 5.74688C2.54523 5.74688 1.50001 6.73966 1.50001 7.99584C1.50001 9.25203 2.54523 10.2448 3.80256 10.2448C4.34672 10.2448 4.85115 10.0589 5.24831 9.74607L8.20537 11.2433L5.90833 12.3304C5.54809 11.538 4.73345 10.9938 3.80255 10.9938C2.54521 10.9938 1.5 11.9866 1.5 13.2427C1.5 14.4989 2.54521 15.4917 3.80255 15.4917C4.81266 15.4917 5.68587 14.851 5.9902 13.9476L6.03018 14.0274L9.99664 12.1502L14.1354 14.2458C14.515 14.9887 15.3025 15.4917 16.1975 15.4917C17.4548 15.4917 18.5 14.4989 18.5 13.2427C18.5 11.9866 17.4548 10.9938 16.1975 10.9938C15.2466 10.9938 14.4171 11.5615 14.0692 12.3816L11.8655 11.2658L14.8791 9.83955C15.2543 10.0956 15.7099 10.2448 16.1975 10.2448C17.4548 10.2448 18.5 9.25204 18.5 7.99585C18.5 6.73967 17.4548 5.74689 16.1975 5.74689C15.4924 5.74689 14.854 6.05906 14.4293 6.55481L11.5115 5.17402L14.2151 3.89468C14.6185 4.55861 15.3611 4.99791 16.1975 4.99791ZM17.5 2.74895C17.5 3.42462 16.9312 3.99791 16.1975 3.99791C15.4637 3.99791 14.8949 3.42462 14.8949 2.74895C14.8949 2.07328 15.4637 1.49998 16.1975 1.49998C16.9312 1.49998 17.5 2.07328 17.5 2.74895ZM14.9662 12.8357C15.1406 12.3519 15.6175 11.9938 16.1975 11.9938C16.9312 11.9938 17.5 12.5671 17.5 13.2427C17.5 13.9184 16.9312 14.4917 16.1975 14.4917C15.4637 14.4917 14.8949 13.9184 14.8949 13.2427C14.8949 13.1849 14.8991 13.1279 14.9071 13.0719L15.0082 12.857L14.9662 12.8357ZM12.7788 9.07886H7.54628L10.0742 10.3588L12.7788 9.07886ZM3.80256 1.49999C4.53626 1.49999 5.1051 2.07329 5.1051 2.74896C5.1051 3.42462 4.53626 3.99792 3.80256 3.99792C3.06885 3.99792 2.50001 3.42462 2.50001 2.74896C2.50001 2.07329 3.06885 1.49999 3.80256 1.49999ZM9.6573 6.05139L12.7095 7.49587H6.60467L9.6573 6.05139ZM5.1051 7.99584C5.1051 7.32017 4.53626 6.74688 3.80256 6.74688C3.06885 6.74688 2.50001 7.32017 2.50001 7.99584C2.50001 8.67151 3.06885 9.24481 3.80256 9.24481C4.53626 9.24481 5.1051 8.67151 5.1051 7.99584ZM3.80255 11.9938C3.06884 11.9938 2.5 12.5671 2.5 13.2427C2.5 13.9184 3.06884 14.4917 3.80255 14.4917C4.53625 14.4917 5.10509 13.9184 5.10509 13.2427C5.10509 12.5671 4.53625 11.9938 3.80255 11.9938ZM16.1975 9.24482C16.9312 9.24482 17.5 8.67152 17.5 7.99585C17.5 7.32018 16.9312 6.74689 16.1975 6.74689C15.4637 6.74689 14.8949 7.32018 14.8949 7.99585C14.8949 8.67152 15.4637 9.24482 16.1975 9.24482Z" fill="#193154"/>
</svg>
