<svg width="20" height="16" viewBox="0 0 20 16" fill="none" xmlns="http://www.w3.org/2000/svg">
<path fill-rule="evenodd" clip-rule="evenodd" d="M15.2735 15.5C14.0757 15.5 13.047 14.5837 13.047 13.3846C13.047 13.3676 13.0472 13.3506 13.0476 13.3337L4.72125 9.53408C4.31713 9.89705 3.77273 10.1154 3.18804 10.1154C1.99023 10.1154 0.961548 9.1991 0.961548 8C0.961548 6.80089 1.99023 5.88461 3.18804 5.88461C3.66265 5.88461 4.1107 6.02847 4.47873 6.27677L13.0629 2.35948C13.1969 1.28833 14.1625 0.5 15.2735 0.5C16.4713 0.5 17.5 1.41628 17.5 2.61538C17.5 3.81449 16.4713 4.73077 15.2735 4.73077C14.5505 4.73077 13.889 4.39689 13.4783 3.86847L6.40534 7.09615L13.2585 7.09615C13.6198 6.36983 14.4019 5.88461 15.2735 5.88461C16.4713 5.88461 17.5 6.8009 17.5 8C17.5 9.1991 16.4713 10.1154 15.2735 10.1154C14.2981 10.1154 13.4348 9.50777 13.1479 8.63461L6.47237 8.63461L13.6682 11.9183C14.0784 11.5149 14.6533 11.2692 15.2735 11.2692C16.4713 11.2692 17.5 12.1855 17.5 13.3846C17.5 14.5837 16.4713 15.5 15.2735 15.5ZM14.047 13.3846C14.047 13.9698 14.5643 14.5 15.2735 14.5C15.9827 14.5 16.5 13.9698 16.5 13.3846C16.5 12.7994 15.9827 12.2692 15.2735 12.2692C14.5643 12.2692 14.047 12.7994 14.047 13.3846ZM1.96155 8C1.96155 8.5852 2.47882 9.11538 3.18804 9.11538C3.89727 9.11538 4.41454 8.5852 4.41454 8C4.41454 7.4148 3.89727 6.88461 3.18804 6.88461C2.47882 6.88461 1.96155 7.4148 1.96155 8ZM15.2735 9.11538C14.5643 9.11538 14.047 8.5852 14.047 8C14.047 7.4148 14.5643 6.88461 15.2735 6.88461C15.9827 6.88461 16.5 7.4148 16.5 8C16.5 8.5852 15.9827 9.11538 15.2735 9.11538ZM16.5 2.61538C16.5 3.20059 15.9827 3.73077 15.2735 3.73077C14.5643 3.73077 14.047 3.20059 14.047 2.61538C14.047 2.03018 14.5643 1.5 15.2735 1.5C15.9827 1.5 16.5 2.03018 16.5 2.61538Z" fill="#193154"/>
</svg>
