<svg width="20" height="16" viewBox="0 0 20 16" fill="none" xmlns="http://www.w3.org/2000/svg">
<path fill-rule="evenodd" clip-rule="evenodd" d="M1.5 7.75C1.5 6.50736 2.50736 5.5 3.75 5.5C4.76817 5.5 5.62838 6.17629 5.90594 7.10417H13.8441C14.1216 6.17629 14.9818 5.5 16 5.5C17.2426 5.5 18.25 6.50736 18.25 7.75C18.25 8.99264 17.2426 10 16 10C15.0919 10 14.3095 9.46208 13.954 8.68751H5.79598C5.44048 9.46208 4.65806 10 3.75 10C2.50736 10 1.5 8.99264 1.5 7.75ZM3.75 6.5C3.05964 6.5 2.5 7.05964 2.5 7.75C2.5 8.44036 3.05964 9 3.75 9C4.44036 9 5 8.44036 5 7.75C5 7.05964 4.44036 6.5 3.75 6.5ZM14.75 7.75C14.75 7.05964 15.3096 6.5 16 6.5C16.6904 6.5 17.25 7.05964 17.25 7.75C17.25 8.44036 16.6904 9 16 9C15.3096 9 14.75 8.44036 14.75 7.75Z" fill="#193154"/>
</svg>
