<svg width="20" height="16" viewBox="0 0 20 16" fill="none" xmlns="http://www.w3.org/2000/svg">
<path fill-rule="evenodd" clip-rule="evenodd" d="M16.4079 0.571978L11.2472 0.485229L12.1033 1.96799L5.05628 6.03671C4.72004 5.84018 4.32878 5.72755 3.91121 5.72755C2.65617 5.72755 1.63876 6.74497 1.63876 8.00001C1.63876 9.25504 2.65617 10.2725 3.91121 10.2725C4.32878 10.2725 4.72005 10.1598 5.05629 9.96329L12.1033 14.032L11.2472 15.5148L16.4079 15.428L13.9028 10.9153L12.899 12.6539L6.4719 8.94311H14.0459V10.6555L18.4718 8L14.0459 5.34445V7.35229H6.09002C6.0837 7.33101 6.07708 7.30986 6.07016 7.28884L12.899 3.3461L13.9028 5.08467L16.4079 0.571978ZM13.8857 3.0551L12.9964 1.51477L14.7246 1.54382L13.8857 3.0551ZM15.0459 8.88935V7.11064L16.5282 8L15.0459 8.88935ZM3.91121 6.72755C3.20845 6.72755 2.63876 7.29725 2.63876 8.00001C2.63876 8.70276 3.20845 9.27246 3.91121 9.27246C4.61396 9.27246 5.18366 8.70276 5.18366 8.00001C5.18366 7.29725 4.61396 6.72755 3.91121 6.72755ZM14.7246 14.4562L12.9964 14.4852L13.8857 12.9449L14.7246 14.4562Z" fill="#193154"/>
</svg>
