<svg width="20" height="16" viewBox="0 0 20 16" fill="none" xmlns="http://www.w3.org/2000/svg">
<path fill-rule="evenodd" clip-rule="evenodd" d="M17.9718 7.73078L13.6154 5.11691V7.08653H5.8671C5.59066 6.16861 4.73879 5.50002 3.73077 5.50002C2.49875 5.50002 1.5 6.49876 1.5 7.73078C1.5 8.9628 2.49875 9.96155 3.73077 9.96155C4.62982 9.96155 5.40466 9.4297 5.7578 8.66346H13.6154V10.3446L17.9718 7.73078ZM16.0282 7.73078L14.6154 8.57845V6.8831L16.0282 7.73078ZM3.73077 6.50002C3.05103 6.50002 2.5 7.05105 2.5 7.73078C2.5 8.41052 3.05103 8.96155 3.73077 8.96155C4.4105 8.96155 4.96154 8.41052 4.96154 7.73078C4.96154 7.05105 4.4105 6.50002 3.73077 6.50002Z" fill="#193154"/>
</svg>
